<svg width="24" height="24" viewBox="0 0 24 24" fill="none" xmlns="http://www.w3.org/2000/svg">
<path fill-rule="evenodd" clip-rule="evenodd" d="M19.0541 3.85171C18.5766 3.31451 17.916 3 17.2134 3H9.52936C8.82671 3 8.16609 3.31451 7.68858 3.85171C7.2127 4.38708 6.95347 5.10227 6.95347 5.83784V7.71518H6.03663C5.33399 7.71518 4.67336 8.02969 4.19585 8.5669C3.71997 9.10226 3.46074 9.81745 3.46074 10.553V18.4117C3.46074 19.1472 3.71997 19.8624 4.19585 20.3978C4.67336 20.935 5.33399 21.2495 6.03663 21.2495H13.0221C13.7247 21.2495 14.3854 20.935 14.8629 20.3978C15.3388 19.8624 15.598 19.1472 15.598 18.4117V17.3202H17.2134C17.916 17.3202 18.5766 17.0057 19.0541 16.4685C19.53 15.9331 19.7893 15.2179 19.7893 14.4823V5.83784C19.7893 5.10227 19.53 4.38708 19.0541 3.85171ZM14.6375 18.4117C14.6375 18.9266 14.4551 19.4108 14.145 19.7597C13.8365 20.1067 13.431 20.289 13.0221 20.289H6.03663C5.62768 20.289 5.22223 20.1067 4.91373 19.7597C4.6036 19.4108 4.42124 18.9266 4.42124 18.4117V10.553C4.42124 10.0381 4.6036 9.55392 4.91373 9.20502C5.22223 8.85796 5.62768 8.67569 6.03663 8.67569H13.0221C13.431 8.67569 13.8365 8.85796 14.145 9.20502C14.4551 9.55392 14.6375 10.0381 14.6375 10.553V18.4117ZM7.91397 7.71518V5.83784C7.91397 5.32287 8.09633 4.83874 8.40646 4.48983C8.71496 4.14277 9.12041 3.9605 9.52936 3.9605H17.2134C17.6223 3.9605 18.0278 4.14277 18.3363 4.48983C18.6464 4.83874 18.8288 5.32287 18.8288 5.83784V14.4823C18.8288 14.9973 18.6464 15.4815 18.3363 15.8304C18.0278 16.1774 17.6223 16.3597 17.2134 16.3597H15.598V10.553C15.598 9.81745 15.3388 9.10226 14.8629 8.5669C14.3854 8.02969 13.7247 7.71518 13.0221 7.71518H7.91397Z" fill="black"/>
</svg>
