<svg width="416" height="416" viewBox="0 0 416 416" fill="none" xmlns="http://www.w3.org/2000/svg">
<g clip-path="url(#clip0_9872_345)">
<path d="M416 208C416 227.341 413.358 246.067 408.428 263.825C403.773 280.563 397.078 296.452 388.63 311.202C386.42 315.06 384.093 318.839 381.647 322.54C373.801 334.414 364.765 345.437 354.709 355.441L354.683 355.467C349.897 360.227 344.888 364.752 339.671 369.028C334.139 373.553 328.372 377.803 322.383 381.752C290.946 402.505 253.534 414.928 213.27 415.922C212.956 415.948 212.629 415.948 212.302 415.948H212.289C211.975 415.961 211.648 415.974 211.322 415.961C210.223 415.987 209.112 416 208 416C206.888 416 205.751 415.987 204.639 415.974H204.365C203.148 415.948 201.945 415.922 200.729 415.869C159.563 414.457 121.444 401.092 89.7201 379.11C89.6547 379.071 89.5893 379.019 89.5239 378.979C87.9678 377.894 86.4117 376.796 84.8817 375.658C78.3694 370.872 72.1449 365.707 66.2341 360.201C66.1426 360.11 66.051 360.031 65.9595 359.94C54.0204 348.785 43.402 336.231 34.3528 322.553C33.7513 321.638 33.1628 320.735 32.5744 319.807C23.9044 306.233 16.7776 291.587 11.4161 276.117C4.01459 254.776 0 231.865 0 208C0 93.1332 93.1332 0 208 0C322.867 0 416 93.1332 416 208Z" fill="#F4F3FF"/>
<path d="M341.907 113.978C339.788 110.852 337.539 107.91 335.407 105.268C321.01 87.3793 305.344 70.4186 288.357 55.4587C293.967 60.4018 311.66 101.685 313.334 113.821C315.622 130.389 228.858 154.986 227.301 163.277C240.875 169.868 252.827 180.983 261.183 194.452C263.851 198.755 266.166 203.292 268.036 208.013C290.292 189.3 313.648 172.065 337.971 156.399C346.235 151.076 353.035 146.016 351.23 134.665C350.093 127.577 346.287 120.398 341.933 113.991L341.907 113.978Z" fill="#7A5AF8"/>
<path d="M84.594 113.978C86.7124 110.852 88.9617 107.91 91.0932 105.268C105.491 87.3793 121.157 70.4186 138.144 55.4587C132.534 60.4018 114.841 101.685 113.167 113.821C110.878 130.389 197.643 154.986 199.199 163.277C185.626 169.868 173.673 180.983 165.317 194.452C162.65 198.755 160.335 203.292 158.465 208.013C136.208 189.3 112.853 172.065 88.5301 156.399C80.2656 151.076 73.4656 146.016 75.2702 134.665C76.4079 127.577 80.2133 120.398 84.5678 113.991L84.594 113.978Z" fill="#6938EF"/>
<path d="M408.429 263.825C403.773 280.563 397.078 296.452 388.63 311.202C386.42 315.06 384.093 318.839 381.647 322.54C364.896 327.287 351.126 346.091 339.671 369.028C334.139 373.553 328.372 377.803 322.383 381.752C290.946 402.505 253.534 414.928 213.27 415.921L225.863 160.845C229.224 158.713 232.82 156.817 236.599 155.117C263.969 142.825 301.133 141.596 329.549 148.422C322.291 150.253 306.835 156.307 301.46 165.134C365.353 166.076 399.562 210.288 412.94 237.606C405.185 236.612 397.431 235.631 389.689 234.637C394.567 238.822 401.576 247.976 408.429 263.825Z" fill="#9B8AFB"/>
<path d="M198.729 160.845L211.322 415.961C210.223 415.987 209.112 416 208 416C206.888 416 205.751 415.987 204.639 415.974H204.365C203.149 415.948 201.945 415.921 200.729 415.869C159.563 414.457 121.444 401.092 89.7201 379.11C76.3948 349.648 59.7088 324.292 38.4197 321.611C37.112 321.808 35.7521 322.134 34.3528 322.553C33.7513 321.638 33.1628 320.735 32.5744 319.807C23.9044 306.233 16.7776 291.587 11.4161 276.117C19.6022 252.566 28.8998 239.803 34.9151 234.637C27.1606 235.631 19.4191 236.612 11.6645 237.606C25.0421 210.288 59.238 166.076 123.144 165.134C117.77 156.307 102.313 150.253 95.0424 148.422C123.471 141.596 160.636 142.825 187.992 155.117C191.772 156.817 195.368 158.713 198.729 160.845Z" fill="#5925DC"/>
<path d="M212.289 162.349V415.948C211.975 415.961 211.648 415.974 211.322 415.961C210.223 415.987 209.112 416 208 416C206.888 416 205.751 415.987 204.639 415.974H204.365C203.149 415.948 201.945 415.921 200.729 415.869C159.563 414.457 121.445 401.092 89.7201 379.11C89.6548 379.071 89.5894 379.019 89.524 378.979C87.9678 377.894 86.4117 376.795 84.8817 375.658C78.3695 370.872 72.1449 365.706 66.2342 360.201C67.8295 358.056 69.2941 356.213 70.5364 354.696L65.9595 359.939C54.0204 348.785 43.402 336.231 34.3529 322.553C33.7513 321.637 33.1629 320.735 32.5744 319.807C50.4766 271.056 81.7563 245.792 82.724 245.007L46.0043 264.165C76.5779 201.435 133.305 185.024 133.305 185.024L94.297 184.37C132.168 162.427 179.623 163.081 179.623 163.081L151.992 151.704C166.926 151.992 178.839 153.404 187.992 155.117C203.489 158.007 211.138 161.76 212.289 162.349Z" fill="#6938EF"/>
<path d="M388.63 311.202C386.42 315.06 384.093 318.839 381.647 322.54C373.801 334.414 364.765 345.437 354.709 355.441L354.055 354.696C354.264 354.944 354.46 355.193 354.683 355.467C349.897 360.227 344.888 364.752 339.671 369.028C334.139 373.552 328.372 377.802 322.383 381.752C290.946 402.505 253.534 414.928 213.27 415.921C212.956 415.948 212.629 415.948 212.302 415.948V162.349C213.453 161.76 221.103 158.007 236.599 155.117C245.753 153.404 257.666 151.992 272.6 151.704L244.968 163.081C244.968 163.081 292.437 162.427 330.308 184.37L291.299 185.024C291.299 185.024 348.027 201.435 378.587 264.165L341.881 245.007C342.731 245.7 370.427 268.036 388.63 311.202Z" fill="#7A5AF8"/>
<path d="M212.289 358.148C254.871 358.148 289.39 323.629 289.39 281.047C289.39 238.466 254.871 203.946 212.289 203.946C169.708 203.946 135.188 238.466 135.188 281.047C135.188 323.629 169.708 358.148 212.289 358.148Z" fill="white"/>
<path d="M212.289 328.725C238.621 328.725 259.967 307.379 259.967 281.047C259.967 254.715 238.621 233.369 212.289 233.369C185.957 233.369 164.611 254.715 164.611 281.047C164.611 307.379 185.957 328.725 212.289 328.725Z" fill="#FEB173"/>
<path d="M212.289 307.475C226.885 307.475 238.717 295.643 238.717 281.047C238.717 266.451 226.885 254.619 212.289 254.619C197.693 254.619 185.861 266.451 185.861 281.047C185.861 295.643 197.693 307.475 212.289 307.475Z" fill="#263238"/>
<path d="M267.303 223.313C233.958 192.883 182.265 195.25 151.848 228.583C139.543 242.065 132.599 258.555 130.899 275.411C190.987 256.646 247.087 264.596 293.692 277.699C292.215 257.587 283.375 237.972 267.303 223.313Z" fill="#5925DC"/>
</g>
<defs>
<clipPath id="clip0_9872_345">
<rect width="416" height="416" fill="white"/>
</clipPath>
</defs>
</svg>
