<svg width="416" height="416" viewBox="0 0 416 416" fill="none" xmlns="http://www.w3.org/2000/svg">
<g clip-path="url(#clip0_9886_4328)">
<path d="M416 208C416 287.232 371.707 356.108 306.53 391.219C277.211 407.029 243.655 416 208.007 416C172.358 416 138.789 407.029 109.456 391.219C44.2926 356.095 0 287.219 0 208C0 93.1332 93.123 0 208.007 0C322.89 0 416 93.1332 416 208Z" fill="#FEB173"/>
<path d="M337.523 87.3924C328.304 78.1733 313.37 78.1733 304.15 87.3924C296.579 94.9639 295.245 106.419 300.123 115.364L276.126 139.36C259.701 124.321 238.293 114.658 214.663 113.115V83.7701C224.445 80.8932 231.598 71.8572 231.598 61.1472C231.598 48.1227 221.031 37.5566 208.006 37.5566V314.642C263.729 314.642 308.897 269.474 308.897 213.754C308.897 189.091 300.044 166.52 285.345 148.984L309.551 124.779C318.509 129.67 329.952 128.336 337.523 120.751C346.743 111.532 346.743 96.5985 337.523 87.3793V87.3924Z" fill="#08BED0"/>
<path d="M184.402 61.1472C184.402 71.8702 191.555 80.8932 201.337 83.7701V113.115C177.707 114.658 156.286 124.321 139.874 139.36L115.877 115.364C120.768 106.406 119.434 94.9639 111.85 87.3924C102.63 78.1733 87.6959 78.1733 78.4765 87.3924C69.257 96.6116 69.257 111.545 78.4765 120.764C86.0482 128.336 97.5039 129.67 106.449 124.792L130.655 148.997C115.956 166.52 107.103 189.104 107.103 213.767C107.103 269.487 152.271 314.655 207.993 314.655V37.5566C194.955 37.5566 184.402 48.1227 184.402 61.1472Z" fill="#0691AE"/>
<path d="M306.727 391.219C277.407 407.029 243.851 416 208.203 416V353.61H234.828V368.283C253.437 372.389 271.627 377.319 289.085 383.766C292.891 384.982 297.076 386.577 301.509 388.63C301.561 388.656 301.627 388.682 301.692 388.709C303.34 389.493 305.014 390.317 306.727 391.219Z" fill="#08BED0"/>
<path d="M208.203 181.559V245.936C246.872 246.799 271.954 213.662 271.954 213.662C271.954 213.662 246.82 180.643 208.203 181.559Z" fill="white"/>
<path d="M144.464 213.845C167.99 237.305 189.659 245.53 208.203 245.936V181.559C189.633 182.003 167.964 190.268 144.464 213.845Z" fill="#E0E0E0"/>
<path d="M208.203 353.61V416C172.554 416 138.985 407.029 109.653 391.219C111.366 390.317 113.053 389.493 114.7 388.722C114.766 388.682 114.831 388.656 114.883 388.63C119.317 386.577 123.501 384.982 127.307 383.766C144.765 377.319 162.955 372.389 181.564 368.283V353.61H208.203Z" fill="#0691AE"/>
<path d="M224.745 197.212C220.181 192.648 214.192 190.359 208.203 190.359V237.148C214.192 237.148 220.181 234.86 224.745 230.296C233.886 221.155 233.886 206.352 224.745 197.212Z" fill="#08BED0"/>
<path d="M191.66 197.212C182.519 206.352 182.519 221.155 191.66 230.296C196.224 234.86 202.213 237.148 208.203 237.148V190.359C202.213 190.359 196.224 192.648 191.66 197.212Z" fill="#0691AE"/>
<path d="M217.461 51.8758C214.846 49.2604 211.42 47.992 207.994 48.0443V74.2241C211.407 74.2764 214.846 73.0079 217.461 70.3926C222.575 65.2795 222.575 56.9757 217.461 51.8627V51.8758Z" fill="white"/>
<path d="M198.931 51.8756C193.818 56.9886 193.818 65.2924 198.931 70.4054C201.442 72.9162 204.711 74.1846 207.994 74.2369V48.0571C204.711 48.1094 201.442 49.3779 198.931 51.8886V51.8756Z" fill="#E0E0E0"/>
<path d="M221.306 210.145C226.55 210.145 230.8 205.894 230.8 200.651C230.8 195.408 226.55 191.157 221.306 191.157C216.063 191.157 211.812 195.408 211.812 200.651C211.812 205.894 216.063 210.145 221.306 210.145Z" fill="white"/>
<path d="M207.993 69.0326C212.349 69.0326 215.879 65.5022 215.879 61.1473C215.879 56.7923 212.349 53.262 207.993 53.262C203.638 53.262 200.108 56.7923 200.108 61.1473C200.108 65.5022 203.638 69.0326 207.993 69.0326Z" fill="#024C74"/>
<path d="M320.837 117.168C328.074 117.168 333.94 111.302 333.94 104.065C333.94 96.8288 328.074 90.9624 320.837 90.9624C313.6 90.9624 307.734 96.8288 307.734 104.065C307.734 111.302 313.6 117.168 320.837 117.168Z" fill="white"/>
<path d="M320.628 111.951C324.983 111.951 328.513 108.42 328.513 104.066C328.513 99.7106 324.983 96.1802 320.628 96.1802C316.273 96.1802 312.742 99.7106 312.742 104.066C312.742 108.42 316.273 111.951 320.628 111.951Z" fill="#024C74"/>
<path d="M95.1631 117.168C102.4 117.168 108.266 111.302 108.266 104.065C108.266 96.8288 102.4 90.9624 95.1631 90.9624C87.9263 90.9624 82.0597 96.8288 82.0597 104.065C82.0597 111.302 87.9263 117.168 95.1631 117.168Z" fill="#E0E0E0"/>
<path d="M94.9669 111.951C99.322 111.951 102.852 108.42 102.852 104.066C102.852 99.7106 99.322 96.1802 94.9669 96.1802C90.6118 96.1802 87.0813 99.7106 87.0813 104.066C87.0813 108.42 90.6118 111.951 94.9669 111.951Z" fill="#024C74"/>
<path d="M285.031 318.865H131.688C128.712 318.865 126.3 321.277 126.3 324.253V324.266C126.3 327.241 128.712 329.654 131.688 329.654H285.031C288.007 329.654 290.419 327.241 290.419 324.266V324.253C290.419 321.277 288.007 318.865 285.031 318.865Z" fill="#024C74"/>
<path d="M243.838 334.309H172.881C169.905 334.309 167.493 336.721 167.493 339.697V339.71C167.493 342.685 169.905 345.097 172.881 345.097H243.838C246.814 345.097 249.226 342.685 249.226 339.71V339.697C249.226 336.721 246.814 334.309 243.838 334.309Z" fill="#024C74"/>
<path d="M218.665 203.096C215.722 200.154 211.864 198.676 208.007 198.676V228.831C211.864 228.831 215.722 227.354 218.665 224.411C224.549 218.527 224.549 208.981 218.665 203.096Z" fill="#024C74"/>
<path d="M197.336 203.096C191.451 208.981 191.451 218.527 197.336 224.411C200.278 227.354 204.136 228.831 207.994 228.831V198.676C204.136 198.676 200.278 200.154 197.336 203.096Z" fill="#024C74"/>
</g>
<defs>
<clipPath id="clip0_9886_4328">
<rect width="416" height="416" fill="white"/>
</clipPath>
</defs>
</svg>
