<svg width="415" height="416" viewBox="0 0 415 416" fill="none" xmlns="http://www.w3.org/2000/svg">
<g clip-path="url(#clip0_9872_491)">
<path d="M207.5 416C322.099 416 415 322.875 415 208C415 93.1248 322.099 0 207.5 0C92.9009 0 0 93.1248 0 208C0 322.875 92.9009 416 207.5 416Z" fill="#B1BCE9"/>
<path d="M268.813 223.457C287.468 206.601 299.196 182.199 299.196 155.039C299.196 140.641 295.896 127.028 290.025 114.893C275.14 84.1494 243.714 62.9519 207.33 62.9519V339.658H212.509V246.969C230.329 245.975 246.78 239.881 260.477 230.126L300.709 318.63L310.128 314.328L268.826 223.444L268.813 223.457Z" fill="white"/>
<path d="M124.636 114.893C118.765 127.028 115.465 140.641 115.465 155.039C115.465 182.984 127.897 208 147.504 224.882L106.855 314.341L116.274 318.643L155.932 231.368C169.264 240.404 185.088 246.014 202.151 246.969V339.658H207.33V62.9519C170.947 62.9519 139.52 84.1494 124.636 114.893Z" fill="#F7F7F7"/>
<path d="M207.474 353.048C216.206 353.048 223.285 345.952 223.285 337.199C223.285 328.446 216.206 321.35 207.474 321.35C198.742 321.35 191.663 328.446 191.663 337.199C191.663 345.952 198.742 353.048 207.474 353.048Z" fill="#FF3932"/>
<path d="M111.382 332.727C120.114 332.727 127.193 325.631 127.193 316.878C127.193 308.124 120.114 301.029 111.382 301.029C102.649 301.029 95.5706 308.124 95.5706 316.878C95.5706 325.631 102.649 332.727 111.382 332.727Z" fill="#FF3932"/>
<path d="M305.575 332.727C314.307 332.727 321.386 325.631 321.386 316.878C321.386 308.124 314.307 301.029 305.575 301.029C296.843 301.029 289.764 308.124 289.764 316.878C289.764 325.631 296.843 332.727 305.575 332.727Z" fill="#FF3932"/>
<path d="M207.33 210.602C176.882 210.602 152.096 185.769 152.096 155.235C152.096 124.701 176.869 99.8677 207.33 99.8677C237.791 99.8677 262.565 124.701 262.565 155.235C262.565 185.769 237.791 210.602 207.33 210.602ZM207.33 107.57C181.109 107.57 159.767 128.951 159.767 155.248C159.767 181.546 181.096 202.926 207.33 202.926C233.565 202.926 254.894 181.546 254.894 155.248C254.894 128.951 233.552 107.57 207.33 107.57Z" fill="#E5E5E5"/>
<path d="M207.33 202.913C233.552 202.913 254.894 181.532 254.894 155.235C254.894 128.937 233.565 107.557 207.33 107.557C181.096 107.557 159.767 128.937 159.767 155.235C159.767 181.532 181.109 202.913 207.33 202.913Z" fill="#62C2E8"/>
<path d="M207.474 202.913C207.474 202.913 207.383 202.913 207.33 202.913C181.109 202.913 159.767 181.532 159.767 155.235C159.767 128.937 181.096 107.557 207.33 107.557C207.383 107.557 207.422 107.557 207.474 107.557V99.8677C207.474 99.8677 207.383 99.8677 207.33 99.8677C176.882 99.8677 152.096 124.701 152.096 155.235C152.096 185.769 176.869 210.602 207.33 210.602C207.383 210.602 207.422 210.602 207.474 210.602V202.913Z" fill="#D6D6D6"/>
<path d="M207.33 202.913V107.57C181.109 107.57 159.767 128.951 159.767 155.248C159.767 181.546 181.109 202.926 207.33 202.926V202.913Z" fill="#46B8DB"/>
<path d="M121.113 140.524H109.764C104.072 140.524 99.4581 145.149 99.4581 150.854V159.616C99.4581 165.321 104.072 169.946 109.764 169.946H121.113C126.805 169.946 131.419 165.321 131.419 159.616V150.854C131.419 145.149 126.805 140.524 121.113 140.524Z" fill="#F7F7F7"/>
<path d="M127.414 151.22H89.7914C87.5796 151.22 85.7865 153.018 85.7865 155.235V155.248C85.7865 157.465 87.5796 159.263 89.7914 159.263H127.414C129.626 159.263 131.419 157.465 131.419 155.248V155.235C131.419 153.018 129.626 151.22 127.414 151.22Z" fill="#F7F7F7"/>
<path d="M324.387 151.22H286.764C284.552 151.22 282.759 153.018 282.759 155.235V155.248C282.759 157.465 284.552 159.263 286.764 159.263H324.387C326.599 159.263 328.392 157.465 328.392 155.248V155.235C328.392 153.018 326.599 151.22 324.387 151.22Z" fill="white"/>
<path d="M304.832 140.524H293.482C287.79 140.524 283.176 145.149 283.176 150.854V159.616C283.176 165.321 287.79 169.946 293.482 169.946H304.832C310.523 169.946 315.138 165.321 315.138 159.616V150.854C315.138 145.149 310.523 140.524 304.832 140.524Z" fill="white"/>
</g>
<defs>
<clipPath id="clip0_9872_491">
<rect width="415" height="416" fill="white"/>
</clipPath>
</defs>
</svg>
