<svg width="416" height="421" viewBox="0 0 416 421" fill="none" xmlns="http://www.w3.org/2000/svg">
<g clip-path="url(#clip0_9872_375)">
<path d="M416 208.125C416 247.458 405.094 284.239 386.132 315.616C374.375 335.125 359.48 352.528 342.166 367.156C338.831 369.996 335.392 372.717 331.874 375.334C328.605 377.768 325.244 380.11 321.831 382.348C320.248 383.382 318.64 384.402 317.031 385.397C313.605 387.516 310.101 389.531 306.53 391.455C306.007 391.743 305.484 392.017 304.961 392.292C303.784 392.92 302.594 393.535 301.404 394.124C294.617 397.565 287.595 400.627 280.389 403.296C274.844 405.351 269.195 407.183 263.454 408.766C254.235 411.317 244.74 413.241 235.037 414.497C232.553 414.837 230.042 415.112 227.531 415.334C225.465 415.531 223.385 415.701 221.306 415.818C221.136 415.832 220.979 415.845 220.809 415.858C217.278 416.08 213.708 416.198 210.112 416.237H209.837C209.68 416.237 209.51 416.237 209.353 416.237C208.909 416.237 208.464 416.237 208.02 416.237H207.823C207.052 416.237 206.293 416.237 205.535 416.237C202.069 416.198 198.643 416.067 195.23 415.858C194.982 415.845 194.72 415.832 194.472 415.805C194.315 415.805 194.158 415.792 194.014 415.766C189.555 415.478 185.148 415.046 180.767 414.471C172.423 413.385 164.237 411.801 156.234 409.747C149.146 407.928 142.202 405.743 135.415 403.218C129.569 401.046 123.868 398.612 118.297 395.93C116.897 395.275 115.524 394.582 114.151 393.889C112.569 393.103 111.013 392.292 109.47 391.455C105.926 389.544 102.434 387.529 99.0208 385.423C97.3077 384.363 95.6208 383.29 93.9338 382.191C90.5468 379.966 87.2383 377.637 83.9951 375.23C81.8112 373.607 79.6665 371.945 77.548 370.205C58.6514 354.988 42.4749 336.499 29.8684 315.616C10.9064 284.239 0 247.458 0 208.125C0 93.1892 93.123 0 208.007 0C322.89 0 416 93.1892 416 208.125Z" fill="#91C6EE"/>
<path d="M342.166 336.434V367.157C338.831 369.996 335.392 372.718 331.874 375.334C328.605 377.768 325.244 380.11 321.831 382.348C320.248 383.382 318.64 384.402 317.031 385.397C313.605 387.516 310.101 389.531 306.53 391.455C306.007 391.743 305.484 392.017 304.961 392.292C303.784 392.92 302.594 393.535 301.404 394.124C294.617 397.565 287.595 400.627 280.389 403.296C274.844 405.351 269.195 407.183 263.454 408.766C263.402 407.431 263.349 406.136 263.297 404.893C261.819 367.039 260.682 365.717 260.682 364.16V319.882C260.682 318.285 260.799 316.728 261.022 315.197C263.284 299.456 276.806 287.379 293.152 287.379C294.225 287.379 295.284 287.418 296.343 287.484C308.623 288.269 319.66 293.581 327.82 301.746C336.7 310.631 342.179 322.891 342.179 336.434H342.166Z" fill="white"/>
<path d="M301.404 314.294V394.124C294.617 397.565 287.595 400.627 280.389 403.296C274.844 405.351 269.195 407.183 263.454 408.766C254.235 411.317 244.74 413.241 235.037 414.497C232.552 414.837 230.042 415.112 227.531 415.334C225.465 415.531 223.385 415.701 221.306 415.819C221.136 415.832 220.979 415.845 220.809 415.858C217.278 416.08 213.708 416.198 210.112 416.237H209.877V421H209.837V241.256H228.433C241.994 241.256 254.692 244.959 265.573 251.409C271.863 255.138 277.551 259.784 282.455 265.174C288.34 271.651 293.087 279.201 296.343 287.484C299.626 295.78 301.417 304.821 301.417 314.294H301.404Z" fill="#E5E5E5"/>
<path d="M270.712 327.536V393.339C270.712 398.468 267.678 402.891 263.297 404.893C261.689 405.639 259.91 406.044 258.027 406.044H209.837V314.831H258.027C259.06 314.831 260.054 314.949 261.009 315.197C266.579 316.532 270.712 321.557 270.712 327.536Z" fill="#4EB7B4"/>
<path d="M209.824 388.694V332.181C216.441 332.181 223.581 334.458 230.512 339.744C248.245 363.048 232.029 388.694 209.824 388.694Z" fill="white"/>
<path d="M273.51 276.087C271.876 269.702 266.344 265.41 259.753 265.41V274.386C258.707 274.386 257.373 281.609 257.046 280.314C256.719 279.018 257.491 277.684 258.38 277.186C257.556 277.644 256.732 278.076 255.895 278.508L255.725 278.586C254.797 279.044 253.855 279.515 252.914 279.96L252.783 280.026C251.907 280.431 251.044 280.824 250.168 281.216H250.141L250.037 281.269C249.095 281.674 248.154 282.067 247.173 282.446C246.218 282.826 245.277 283.192 244.23 283.572C243.367 283.886 242.517 284.187 241.654 284.461L240.778 284.749C240.111 284.985 239.418 285.194 238.738 285.377L238.176 285.561C237.404 285.783 236.62 286.005 235.809 286.215L233.677 286.751C233.416 286.817 233.154 286.882 232.879 286.934L232.631 286.987C232.003 287.131 231.402 287.275 230.761 287.406C230.63 287.432 230.473 287.458 230.277 287.497L230.055 287.536C229.375 287.68 228.682 287.798 228.002 287.929L227.452 288.034C227.138 288.099 226.812 288.138 226.458 288.204L226.21 288.243C226.053 288.269 225.896 288.295 225.739 288.321L224.745 288.478C224.575 288.505 224.392 288.544 224.209 288.557L223.935 288.596C223.634 288.635 223.333 288.688 223.019 288.727C222.836 288.74 222.666 288.766 222.522 288.793L221.097 288.95H220.704L220.247 289.041C220.09 289.054 219.946 289.067 219.789 289.08L219.475 289.107C219.161 289.146 218.848 289.172 218.534 289.198H218.311V276.637H209.811V306.575C210.321 306.575 210.831 306.575 211.341 306.562C211.864 306.562 212.374 306.548 212.91 306.535H213.237C213.577 306.522 213.93 306.509 214.271 306.496C214.741 306.483 215.212 306.47 215.709 306.431C215.944 306.431 216.18 306.405 216.415 306.391C216.925 306.365 217.448 306.339 217.945 306.313H218.063C218.128 306.313 218.194 306.3 218.259 306.287L219.92 306.156C220.351 306.117 220.77 306.09 221.201 306.038C221.45 306.012 221.711 305.999 221.973 305.96L225.203 305.606L225.334 305.58C225.674 305.541 226.014 305.489 226.354 305.436C226.72 305.384 227.086 305.332 227.439 305.279L228.159 305.175C228.499 305.122 228.852 305.07 229.192 305.018C229.662 304.939 230.133 304.874 230.696 304.769L231.127 304.69C231.872 304.546 232.618 304.416 233.363 304.259C233.507 304.232 233.677 304.193 233.886 304.154L234.2 304.089C234.959 303.931 235.678 303.761 236.423 303.591C236.946 303.487 237.483 303.356 237.993 303.225C238.241 303.16 238.503 303.107 238.751 303.042L240.098 302.702C241.013 302.466 241.916 302.204 242.831 301.943C243.08 301.877 243.328 301.799 243.564 301.72C244.4 301.485 245.224 301.223 246.022 300.961C246.427 300.844 246.781 300.726 247.094 300.608C248.101 300.281 249.108 299.928 250.037 299.587C251.188 299.169 252.338 298.724 253.463 298.279C254.47 297.873 255.477 297.468 256.471 297.036C256.693 296.957 256.902 296.853 257.125 296.761C258.001 296.369 258.864 295.976 259.727 295.583C259.975 295.479 260.211 295.374 260.446 295.243C261.322 294.825 262.199 294.393 263.062 293.961C263.336 293.843 263.598 293.712 263.846 293.568C264.762 293.097 265.664 292.613 266.54 292.129C272.333 288.95 275.119 282.525 273.484 276.127L273.51 276.087Z" fill="#3C3642"/>
<path d="M209.824 268.498V73.209C240.111 73.209 267.534 85.4955 287.385 105.345C307.223 125.208 319.503 152.646 319.503 182.95C319.503 215.688 305.17 245.09 282.442 265.188C275.59 271.259 267.979 276.48 259.753 280.68C259.675 280.732 259.596 280.771 259.518 280.798C258.55 281.282 257.569 281.766 256.588 282.237C256.523 282.276 256.445 282.315 256.366 282.342C255.438 282.773 254.509 283.192 253.568 283.611C253.502 283.637 253.45 283.676 253.384 283.689C252.378 284.121 251.358 284.54 250.337 284.945C249.291 285.364 248.245 285.77 247.186 286.149C246.231 286.503 245.277 286.83 244.322 287.144C244.074 287.235 243.812 287.327 243.55 287.392C242.713 287.68 241.863 287.942 241.013 288.177C240.87 288.23 240.726 288.282 240.569 288.321C239.706 288.57 238.843 288.819 237.98 289.041C237.731 289.106 237.483 289.172 237.234 289.237C236.803 289.342 236.358 289.46 235.913 289.564C235.482 289.682 235.037 289.787 234.593 289.878C233.873 290.049 233.167 290.206 232.435 290.363C232.212 290.402 231.99 290.454 231.768 290.493C230.931 290.663 230.081 290.821 229.244 290.978L229.048 291.017C228.629 291.095 228.211 291.161 227.792 291.226C227.374 291.305 226.942 291.357 226.524 291.422C226.092 291.488 225.661 291.566 225.216 291.619C224.785 291.684 224.34 291.75 223.895 291.802C223.843 291.802 223.791 291.815 223.738 291.828C223.49 291.854 223.241 291.88 222.98 291.907C222.535 291.959 222.078 292.011 221.62 292.064C221.581 292.064 221.555 292.077 221.515 292.077C221.149 292.116 220.783 292.155 220.43 292.181C219.841 292.247 219.266 292.286 218.678 292.338C218.338 292.365 218.011 292.391 217.671 292.417C217.605 292.417 217.553 292.43 217.487 292.43C216.938 292.469 216.376 292.495 215.827 292.522C215.604 292.548 215.382 292.548 215.16 292.561C214.741 292.587 214.323 292.6 213.904 292.613C213.486 292.639 213.067 292.639 212.649 292.652C212.191 292.665 211.72 292.679 211.237 292.679C210.766 292.679 210.295 292.679 209.824 292.679V268.498Z" fill="white"/>
<path d="M209.824 268.498V94.6287C234.187 94.6287 256.261 104.521 272.229 120.497C276.701 124.972 280.69 129.918 284.103 135.257C291.086 146.117 295.755 158.574 297.402 171.985C297.847 175.571 298.083 179.221 298.083 182.937C298.083 186.653 297.86 190.304 297.416 193.889C295.755 207.288 291.086 219.771 284.116 230.618C279.068 238.495 272.791 245.521 265.559 251.409C255.817 259.365 244.335 265.279 231.768 268.498C224.758 270.291 217.396 271.246 209.824 271.246V268.498Z" fill="#4EB7B4"/>
<path d="M292.198 237.893C301.182 237.893 308.466 213.294 308.466 182.95C308.466 152.606 301.182 128.008 292.198 128.008C283.213 128.008 275.93 152.606 275.93 182.95C275.93 213.294 283.213 237.893 292.198 237.893Z" fill="white"/>
<path d="M301.038 194.478C307.401 194.478 312.559 189.317 312.559 182.95C312.559 176.584 307.401 171.423 301.038 171.423C294.675 171.423 289.517 176.584 289.517 182.95C289.517 189.317 294.675 194.478 301.038 194.478Z" fill="#4EB7B4"/>
<path d="M159.032 319.882V364.16C159.032 365.717 157.895 367.039 156.417 404.893C156.351 406.45 156.286 408.059 156.221 409.747C149.133 407.928 142.189 405.743 135.402 403.218C129.556 401.046 123.854 398.612 118.284 395.93C116.884 395.276 115.511 394.582 114.138 393.889C112.556 393.103 111 392.292 109.456 391.455C105.913 389.544 102.421 387.529 99.0077 385.423C97.2946 384.363 95.6077 383.29 93.9207 382.191C90.5337 379.966 87.2251 377.637 83.982 375.23C81.7981 373.607 79.6534 371.946 77.5349 370.205V336.434C77.5349 322.891 83.0143 310.631 91.8937 301.746C100.054 293.581 111.091 288.269 123.371 287.484C124.43 287.418 125.489 287.379 126.561 287.379C142.908 287.379 156.43 299.456 158.692 315.197C158.915 316.728 159.032 318.285 159.032 319.882Z" fill="#CCCCCC"/>
<path d="M209.863 241.256V421H209.824V416.237C209.667 416.237 209.497 416.237 209.34 416.237C208.896 416.237 208.451 416.237 208.007 416.237H207.81C207.039 416.237 206.28 416.237 205.522 416.237C202.056 416.198 198.63 416.067 195.217 415.858C194.968 415.845 194.707 415.832 194.458 415.805C194.302 415.805 194.145 415.792 194.001 415.766C189.541 415.478 185.134 415.047 180.754 414.471C172.41 413.385 164.224 411.801 156.221 409.747C149.133 407.928 142.189 405.743 135.402 403.218C129.556 401.046 123.854 398.612 118.284 395.93V314.294C118.284 304.821 120.075 295.78 123.371 287.484C126.614 279.201 131.361 271.651 137.246 265.174C142.15 259.784 147.838 255.138 154.128 251.409C165.009 244.959 177.707 241.256 191.268 241.256H209.863Z" fill="#B7B7B7"/>
<path d="M148.989 327.536V393.339C148.989 398.468 152.023 402.891 156.404 404.893C158.012 405.639 159.791 406.044 161.674 406.044H209.863V314.831H161.674C160.641 314.831 159.647 314.949 158.692 315.197C153.121 316.532 148.989 321.557 148.989 327.536Z" fill="#3E9290"/>
<path d="M209.877 388.694V332.181C203.26 332.181 196.119 334.458 189.188 339.744C171.456 363.048 187.671 388.694 209.877 388.694Z" fill="#CCCCCC"/>
<path d="M146.19 276.087C147.825 269.702 153.357 265.41 159.948 265.41V274.386C160.994 274.386 162.328 281.609 162.655 280.314C162.982 279.018 162.21 277.684 161.321 277.186C162.145 277.644 162.968 278.076 163.805 278.508L163.975 278.586C164.904 279.044 165.845 279.515 166.787 279.96L166.918 280.026C167.794 280.431 168.657 280.824 169.533 281.216H169.559L169.664 281.269C170.606 281.674 171.547 282.067 172.528 282.446C173.483 282.826 174.424 283.192 175.47 283.572C176.333 283.886 177.183 284.187 178.047 284.461L178.923 284.749C179.59 284.985 180.283 285.194 180.963 285.377L181.525 285.561C182.297 285.783 183.081 286.005 183.892 286.215L186.024 286.751C186.285 286.817 186.547 286.882 186.821 286.934L187.07 286.987C187.698 287.131 188.299 287.275 188.94 287.406C189.071 287.432 189.228 287.458 189.424 287.497L189.646 287.536C190.326 287.68 191.019 287.798 191.699 287.929L192.248 288.034C192.562 288.099 192.889 288.138 193.242 288.204L193.491 288.243C193.648 288.269 193.805 288.295 193.962 288.321L194.955 288.478C195.125 288.505 195.308 288.544 195.492 288.557L195.766 288.596C196.067 288.635 196.368 288.688 196.682 288.727C196.865 288.74 197.035 288.766 197.179 288.793L198.604 288.95H198.996L199.454 289.041C199.611 289.054 199.755 289.067 199.912 289.08L200.226 289.107C200.539 289.146 200.853 289.172 201.167 289.198H201.389V276.637H209.89V306.575C209.38 306.575 208.87 306.575 208.36 306.562C207.836 306.562 207.326 306.548 206.79 306.535H206.463C206.123 306.522 205.77 306.509 205.43 306.496C204.959 306.483 204.489 306.47 203.992 306.431C203.756 306.431 203.521 306.405 203.286 306.391C202.776 306.365 202.253 306.339 201.756 306.313H201.638C201.572 306.313 201.507 306.3 201.442 306.287L199.781 306.156C199.349 306.117 198.931 306.09 198.499 306.038C198.251 306.012 197.989 305.999 197.728 305.96L194.498 305.606L194.367 305.58C194.027 305.541 193.687 305.489 193.347 305.436C192.981 305.384 192.615 305.332 192.262 305.279L191.542 305.175C191.202 305.122 190.849 305.07 190.509 305.004C190.038 304.926 189.568 304.861 189.005 304.756L188.574 304.677C187.828 304.533 187.083 304.403 186.338 304.246C186.194 304.219 186.024 304.18 185.814 304.141L185.501 304.075C184.742 303.918 184.023 303.748 183.277 303.578C182.754 303.474 182.218 303.343 181.708 303.212C181.46 303.146 181.198 303.094 180.95 303.029L179.603 302.688C178.687 302.453 177.785 302.191 176.87 301.93C176.621 301.864 176.373 301.786 176.137 301.707C175.3 301.472 174.476 301.21 173.679 300.948C173.273 300.83 172.92 300.713 172.606 300.595C171.599 300.268 170.593 299.914 169.664 299.574C168.513 299.156 167.362 298.711 166.238 298.266C165.231 297.86 164.224 297.455 163.23 297.023C163.008 296.944 162.798 296.84 162.576 296.748C161.7 296.355 160.837 295.963 159.974 295.57C159.725 295.466 159.49 295.361 159.255 295.23C158.378 294.811 157.502 294.38 156.639 293.948C156.364 293.83 156.103 293.699 155.854 293.555C154.939 293.084 154.037 292.6 153.161 292.116C147.367 288.936 144.582 282.512 146.217 276.113L146.19 276.087Z" fill="#302B35"/>
<path d="M209.877 268.498V73.209C179.59 73.209 152.167 85.4955 132.315 105.345C112.477 125.208 100.198 152.646 100.198 182.95C100.198 215.688 114.53 245.09 137.259 265.188C144.111 271.259 151.722 276.48 159.948 280.68C160.026 280.732 160.105 280.771 160.183 280.798C161.151 281.282 162.132 281.766 163.112 282.237C163.178 282.276 163.256 282.315 163.335 282.342C164.263 282.773 165.192 283.192 166.133 283.611C166.199 283.637 166.251 283.676 166.316 283.689C167.323 284.121 168.343 284.54 169.363 284.945C170.409 285.364 171.456 285.77 172.515 286.149C173.47 286.503 174.424 286.83 175.379 287.144C175.627 287.235 175.889 287.327 176.15 287.392C176.987 287.68 177.837 287.942 178.687 288.177C178.831 288.23 178.975 288.282 179.132 288.321C179.995 288.57 180.858 288.819 181.721 289.041C181.97 289.106 182.218 289.172 182.467 289.237C182.898 289.342 183.343 289.46 183.787 289.564C184.219 289.682 184.664 289.787 185.108 289.878C185.828 290.049 186.534 290.206 187.266 290.363C187.488 290.402 187.711 290.454 187.933 290.493C188.77 290.663 189.62 290.821 190.457 290.978L190.653 291.017C191.071 291.095 191.49 291.161 191.908 291.226C192.327 291.305 192.758 291.357 193.177 291.422C193.608 291.488 194.04 291.566 194.485 291.619C194.916 291.684 195.361 291.75 195.805 291.802C195.858 291.802 195.91 291.815 195.962 291.828C196.211 291.854 196.459 291.88 196.721 291.907C197.165 291.959 197.623 292.011 198.081 292.064C198.12 292.064 198.146 292.077 198.186 292.077C198.552 292.116 198.918 292.155 199.271 292.181C199.859 292.247 200.435 292.286 201.023 292.338C201.363 292.365 201.69 292.391 202.03 292.417C202.096 292.417 202.148 292.43 202.213 292.43C202.763 292.469 203.325 292.495 203.874 292.522C204.096 292.548 204.319 292.548 204.541 292.561C204.96 292.587 205.378 292.6 205.796 292.613C206.215 292.639 206.633 292.639 207.052 292.652C207.51 292.665 207.98 292.679 208.464 292.679C208.935 292.679 209.406 292.679 209.877 292.679V268.498Z" fill="#CCCCCC"/>
<path d="M209.877 268.498V94.6287C185.514 94.6287 163.439 104.521 147.472 120.497C143 124.972 139.011 129.918 135.598 135.257C128.615 146.117 123.946 158.574 122.298 171.985C121.854 175.571 121.618 179.221 121.618 182.937C121.618 186.653 121.841 190.304 122.285 193.889C123.946 207.288 128.615 219.771 135.585 230.618C140.633 238.495 146.91 245.521 154.141 251.409C163.884 259.365 175.366 265.279 187.933 268.498C194.942 270.291 202.305 271.246 209.877 271.246V268.498Z" fill="#3E9290"/>
<path d="M127.503 237.893C136.488 237.893 143.771 213.294 143.771 182.95C143.771 152.606 136.488 128.008 127.503 128.008C118.518 128.008 111.235 152.606 111.235 182.95C111.235 213.294 118.518 237.893 127.503 237.893Z" fill="#CCCCCC"/>
<path d="M118.663 194.478C125.026 194.478 130.184 189.317 130.184 182.95C130.184 176.584 125.026 171.423 118.663 171.423C112.3 171.423 107.142 176.584 107.142 182.95C107.142 189.317 112.3 194.478 118.663 194.478Z" fill="#3E9290"/>
</g>
<defs>
<clipPath id="clip0_9872_375">
<rect width="416" height="421" fill="white"/>
</clipPath>
</defs>
</svg>
