<svg width="416" height="416" viewBox="0 0 416 416" fill="none" xmlns="http://www.w3.org/2000/svg">
<g clip-path="url(#clip0_9872_439)">
<path d="M416 208C416 227.341 413.358 246.067 408.428 263.825C403.773 280.563 397.078 296.452 388.63 311.202C386.42 315.06 384.093 318.839 381.647 322.54C373.801 334.414 364.765 345.437 354.709 355.441L354.683 355.467C350.511 359.626 346.157 363.588 341.658 367.354C341.004 367.93 340.337 368.479 339.671 369.028C334.139 373.553 328.372 377.803 322.383 381.752C290.946 402.505 253.534 414.928 213.27 415.922C212.956 415.948 212.629 415.948 212.302 415.948C211.988 415.961 211.662 415.974 211.335 415.961C210.236 415.987 209.125 416 208.013 416C206.902 416 205.764 416 204.652 415.974H204.378C204.064 415.974 203.737 415.974 203.423 415.948C202.534 415.948 201.645 415.908 200.742 415.869C159.577 414.457 121.458 401.092 89.7332 379.11C89.6678 379.071 89.6024 379.019 89.537 378.979C87.9809 377.894 86.4247 376.796 84.8948 375.658C78.3825 370.872 72.1579 365.707 66.2472 360.201C66.1557 360.11 66.0641 360.031 65.9726 359.94C65.698 359.691 65.4234 359.43 65.1618 359.168C53.5496 348.21 43.2058 335.918 34.3659 322.553C33.7644 321.638 33.1759 320.735 32.5875 319.807C23.9175 306.233 16.7906 291.587 11.4291 276.117C4.01459 254.776 0 231.865 0 208C0 93.1332 93.1332 0 208 0C322.867 0 416 93.1332 416 208Z" fill="#C6E4F6"/>
<path d="M208 125.198C240.169 125.198 266.257 151.286 266.257 183.455C266.257 215.624 149.743 215.624 149.743 183.455C149.743 151.286 175.831 125.198 208 125.198Z" fill="white"/>
<path d="M208 125.198C175.831 125.198 149.743 151.286 149.743 183.455H208V125.198Z" fill="#EAEAEA"/>
<path d="M208 284.133C184.135 284.133 164.781 264.779 164.781 240.914C164.781 217.049 251.206 217.049 251.206 240.914C251.206 264.779 231.852 284.133 207.987 284.133H208Z" fill="#302D2D"/>
<path d="M208 284.133C231.865 284.133 251.219 264.78 251.219 240.914H208V284.133Z" fill="#3E3A39"/>
<path d="M265.59 253.573H150.253C126.361 244.34 106.563 229.498 91.3939 210.877C87.497 206.091 90.0078 197.29 95.2516 197.29H320.748C325.992 197.29 328.49 206.091 324.606 210.877C309.437 229.498 289.482 244.354 265.59 253.573Z" fill="#C93F09"/>
<path d="M324.606 210.877C309.437 229.498 289.482 244.354 265.59 253.573H208V197.29H320.748C325.992 197.29 328.49 206.091 324.606 210.877Z" fill="#EC4A0A"/>
<path d="M175.504 173.83H240.496C267.656 173.83 294.412 177.61 316.289 185.155C323.298 187.574 329.471 190.229 334.636 193.079H81.364C86.5294 190.229 92.7016 187.574 99.7108 185.155C121.588 177.61 148.344 173.83 175.504 173.83Z" fill="#D77131"/>
<path d="M353.924 210.694L63.5011 210.694C58.5711 210.694 54.5827 206.692 54.5827 201.775C54.5827 196.976 58.4796 193.079 63.2787 193.079L354.147 193.079C358.946 193.079 362.843 196.976 362.843 201.775C362.843 206.705 358.841 210.694 353.924 210.694Z" fill="#3E3A39"/>
<path d="M208 193.079V173.83H240.496C267.656 173.83 294.412 177.61 316.289 185.155C323.298 187.574 329.471 190.229 334.636 193.079H208Z" fill="#FD853A"/>
<path d="M208 193.079V210.694H63.4618C58.558 210.694 54.5827 206.718 54.5827 201.815V201.762C54.5827 196.963 58.4796 193.066 63.2788 193.066H208V193.079Z" fill="#302D2D"/>
<path d="M231.094 206.954C233.889 206.954 236.154 204.688 236.154 201.893C236.154 199.098 233.889 196.832 231.094 196.832C228.299 196.832 226.033 199.098 226.033 201.893C226.033 204.688 228.299 206.954 231.094 206.954Z" fill="white"/>
<path d="M279.308 206.954C282.103 206.954 284.369 204.688 284.369 201.893C284.369 199.098 282.103 196.832 279.308 196.832C276.513 196.832 274.247 199.098 274.247 201.893C274.247 204.688 276.513 206.954 279.308 206.954Z" fill="white"/>
<path d="M327.535 206.954C330.33 206.954 332.596 204.688 332.596 201.893C332.596 199.098 330.33 196.832 327.535 196.832C324.74 196.832 322.475 199.098 322.475 201.893C322.475 204.688 324.74 206.954 327.535 206.954Z" fill="white"/>
<path d="M86.4247 206.954C89.2197 206.954 91.4855 204.688 91.4855 201.893C91.4855 199.098 89.2197 196.832 86.4247 196.832C83.6298 196.832 81.364 199.098 81.364 201.893C81.364 204.688 83.6298 206.954 86.4247 206.954Z" fill="#EAEAEA"/>
<path d="M134.652 206.954C137.447 206.954 139.713 204.688 139.713 201.893C139.713 199.098 137.447 196.832 134.652 196.832C131.857 196.832 129.591 199.098 129.591 201.893C129.591 204.688 131.857 206.954 134.652 206.954Z" fill="#EAEAEA"/>
<path d="M182.866 206.954C185.661 206.954 187.927 204.688 187.927 201.893C187.927 199.098 185.661 196.832 182.866 196.832C180.071 196.832 177.806 199.098 177.806 201.893C177.806 204.688 180.071 206.954 182.866 206.954Z" fill="#EAEAEA"/>
</g>
<defs>
<clipPath id="clip0_9872_439">
<rect width="416" height="416" fill="white"/>
</clipPath>
</defs>
</svg>
