<svg width="416" height="416" viewBox="0 0 416 416" fill="none" xmlns="http://www.w3.org/2000/svg">
<g clip-path="url(#clip0_9872_424)">
<path d="M416 208C416 247.309 405.094 284.068 386.132 315.426C372.1 338.69 353.622 358.959 331.874 375.109C328.605 377.541 325.244 379.882 321.831 382.118C320.248 383.151 318.64 384.171 317.031 385.165C313.605 387.283 310.101 389.297 306.53 391.219C306.007 391.507 305.484 391.782 304.961 392.056C297.063 396.241 288.863 399.915 280.389 403.054H280.376C265.952 408.415 250.769 412.221 235.024 414.248C232.539 414.588 230.029 414.862 227.518 415.085C225.452 415.281 223.372 415.451 221.293 415.568C221.123 415.582 220.966 415.595 220.796 415.608C217.265 415.83 213.695 415.948 210.099 415.987C209.85 415.987 209.589 415.987 209.34 415.987C208.896 415.987 208.451 415.987 208.007 415.987H207.81C207.039 415.987 206.28 415.987 205.522 415.987C202.056 415.948 198.63 415.817 195.217 415.608C194.969 415.595 194.707 415.582 194.459 415.555C194.302 415.555 194.145 415.542 194.001 415.516C189.541 415.228 185.134 414.797 180.754 414.222C165.022 412.168 149.826 408.35 135.402 402.975C128.105 400.255 121.004 397.143 114.138 393.652C112.556 392.867 111 392.056 109.456 391.219C105.913 389.31 102.421 387.296 99.0078 385.191C97.2946 384.132 95.6077 383.059 93.9207 381.961C90.5337 379.738 87.2252 377.41 83.982 375.004C62.313 358.88 43.8741 338.638 29.8553 315.426C10.9064 284.068 0 247.309 0 208C0 93.1332 93.123 0 208.007 0C322.89 0 416 93.1332 416 208Z" fill="#91C6EE"/>
<path d="M324.577 304.559L222.627 190.202C218.795 185.913 213.604 183.546 207.98 183.546C202.357 183.546 197.166 185.913 193.334 190.202L91.3837 304.559C86.9113 309.568 85.6298 314.472 87.8398 318.002C88.8729 319.637 91.5668 322.383 98.1447 322.383H317.829C324.394 322.383 327.101 319.637 328.121 318.002C330.344 314.472 329.049 309.568 324.577 304.559Z" fill="white"/>
<path d="M199.402 339.644L183.801 319.964C182.624 318.473 180.479 318.473 179.302 319.964L163.701 339.644C163.008 340.521 162.799 341.357 163.112 342.011C163.269 342.325 163.688 342.861 164.747 342.861H198.356C199.415 342.861 199.833 342.338 199.99 342.011C200.304 341.357 200.095 340.521 199.402 339.644Z" fill="#3C3642"/>
<path d="M252.299 339.644L236.698 319.964C235.508 318.473 233.376 318.473 232.186 319.964L216.585 339.644C215.892 340.521 215.683 341.357 215.997 342.011C216.141 342.325 216.572 342.861 217.631 342.861H251.24C252.299 342.861 252.718 342.338 252.875 342.011C253.188 341.357 252.979 340.521 252.286 339.644H252.299Z" fill="#3C3642"/>
<path d="M208.007 73.1387C188.456 73.1387 174.83 112.918 174.83 148.618V314.458H241.17V148.618C241.17 112.918 227.544 73.1387 208.007 73.1387Z" fill="white"/>
<path d="M204.266 328.451V192.269C204.266 179.728 194.092 169.567 181.551 169.567C169.01 169.567 158.849 179.728 158.849 192.269V328.451H204.266Z" fill="#EB6624"/>
<path d="M257.164 328.451V192.269C257.164 179.728 246.99 169.567 234.449 169.567C221.908 169.567 211.747 179.728 211.747 192.269V328.451H257.164Z" fill="#EB6624"/>
<path d="M181.826 103.686C190.339 104.418 199.049 104.863 208.007 104.863C216.964 104.863 225.661 104.432 234.174 103.686C228.302 86.0193 219.122 73.1387 208.007 73.1387C196.891 73.1387 187.698 86.0193 181.826 103.686Z" fill="#3C3642"/>
<path d="M185.03 121.131C189.306 127.421 187.894 125.341 192.183 131.631C202.148 126.649 213.917 126.662 223.882 131.658C228.172 125.381 226.746 127.447 231.036 121.17C217.736 109.845 198.329 109.832 185.03 121.118V121.131Z" fill="#3C3642"/>
<path opacity="0.15" d="M208.006 73.1387C207.444 73.1387 206.895 73.1779 206.346 73.2433C206.267 73.2433 206.189 73.2564 206.11 73.2694C205.587 73.3348 205.077 73.4394 204.567 73.5702C204.462 73.5964 204.358 73.6225 204.266 73.6487C203.769 73.7794 203.272 73.9364 202.789 74.1194C202.697 74.1587 202.592 74.1979 202.501 74.2371C202.004 74.4333 201.52 74.6425 201.036 74.891C200.971 74.9171 200.919 74.9563 200.853 74.9956C200.409 75.231 199.977 75.4794 199.545 75.754C199.428 75.8194 199.323 75.8979 199.205 75.9633C198.774 76.251 198.355 76.5517 197.924 76.8786C197.78 76.9963 197.636 77.1009 197.492 77.2186C197.1 77.5325 196.695 77.8725 196.315 78.2256C196.158 78.3694 195.988 78.5263 195.832 78.6832C195.518 78.984 195.217 79.2848 194.903 79.5986C194.668 79.834 194.445 80.0825 194.223 80.3309C193.975 80.5925 193.739 80.8671 193.504 81.1548C193.229 81.4686 192.968 81.8086 192.693 82.1355C192.471 82.4101 192.248 82.6978 192.026 82.9855C191.804 83.2732 191.581 83.574 191.372 83.8747C191.215 84.0971 191.058 84.3324 190.888 84.5678C190.535 85.0778 190.195 85.6009 189.855 86.137C189.777 86.2678 189.685 86.3986 189.607 86.5293C189.175 87.2093 188.77 87.9155 188.351 88.6347C188.312 88.7132 188.26 88.7916 188.221 88.8701C179.89 103.738 174.856 126.911 174.856 148.605V170.561C165.597 173.425 158.862 182.056 158.862 192.255V228.923L91.4359 304.559C86.9635 309.568 85.6819 314.471 87.892 318.002C88.9251 319.637 91.619 322.383 98.1968 322.383H158.862V328.451H172.593L163.714 339.644C163.021 340.521 162.811 341.357 163.125 342.011C163.282 342.325 163.701 342.861 164.76 342.861H198.368C199.428 342.861 199.846 342.338 200.003 342.011C200.317 341.357 200.108 340.521 199.415 339.644L190.535 328.451H204.266V322.383H208.006V73.1387Z" fill="black"/>
</g>
<defs>
<clipPath id="clip0_9872_424">
<rect width="416" height="416" fill="white"/>
</clipPath>
</defs>
</svg>
