<svg width="416" height="416" viewBox="0 0 416 416" fill="none" xmlns="http://www.w3.org/2000/svg">
<g clip-path="url(#clip0_9872_509)">
<path d="M416 208C416 247.309 405.094 284.068 386.132 315.426C376.18 331.929 363.979 346.928 349.973 359.992C344.232 365.367 338.19 370.414 331.874 375.109C328.605 377.541 325.244 379.882 321.831 382.118C320.248 383.151 318.64 384.171 317.031 385.165C316.691 385.374 316.338 385.596 315.985 385.793C312.899 387.689 309.734 389.493 306.53 391.219C306.007 391.507 305.484 391.782 304.961 392.056C298.488 395.482 291.805 398.582 284.927 401.302C283.423 401.903 281.906 402.492 280.389 403.054H280.376C272.281 406.062 263.964 408.572 255.425 410.56C248.742 412.129 241.942 413.358 235.024 414.248C232.539 414.588 230.029 414.862 227.518 415.085C225.452 415.281 223.372 415.451 221.293 415.568C221.123 415.582 220.966 415.595 220.796 415.608C217.814 415.791 214.807 415.908 211.773 415.961C211.21 415.961 210.661 415.987 210.099 415.987C209.85 415.987 209.589 415.987 209.34 415.987C208.896 415.987 208.451 415.987 208.007 415.987H207.81C207.039 415.987 206.28 415.987 205.522 415.987C202.056 415.948 198.63 415.817 195.217 415.608C194.969 415.595 194.707 415.582 194.459 415.555C194.302 415.555 194.145 415.542 194.001 415.516C189.541 415.228 185.134 414.797 180.754 414.222C178.295 413.895 175.837 413.529 173.404 413.123C160.288 410.939 147.564 407.513 135.402 402.975C134.055 402.479 132.708 401.955 131.374 401.419C125.489 399.092 119.735 396.502 114.138 393.652C112.556 392.867 111 392.056 109.456 391.219C108.397 390.657 107.351 390.069 106.305 389.48C103.846 388.107 101.401 386.669 99.0078 385.191C97.2946 384.132 95.6077 383.059 93.9207 381.961C90.5337 379.738 87.2252 377.41 83.982 375.004C79.7058 371.826 75.5472 368.479 71.5325 364.961C55.199 350.76 41.1018 334.048 29.8553 315.426C10.9064 284.068 0 247.309 0 208C0 93.1332 93.123 0 208.007 0C322.89 0 416 93.1332 416 208Z" fill="#E3E2FC"/>
<path d="M346.939 201.239C346.939 216.578 344.376 231.329 339.642 245.073C338.269 249.074 336.713 252.997 334.973 256.816C334.921 256.934 334.869 257.064 334.817 257.182C334.817 257.195 334.803 257.195 334.803 257.208C326.853 274.587 315.331 290.005 301.182 302.493C300.175 303.395 299.155 304.272 298.122 305.122C298.096 305.135 298.083 305.148 298.056 305.161C294.212 308.378 290.197 311.359 286.012 314.119C290.812 315.492 295.519 317.087 300.123 318.983C305.537 321.219 310.833 323.887 315.985 327.091V385.793C312.899 387.689 309.734 389.493 306.53 391.219C306.007 391.507 305.484 391.782 304.961 392.056C298.488 395.482 291.806 398.582 284.927 401.302C283.423 401.903 281.906 402.492 280.389 403.054H280.376C272.281 406.062 263.964 408.572 255.425 410.56C248.742 412.129 241.942 413.359 235.024 414.248C232.539 414.588 230.029 414.862 227.518 415.085C225.452 415.281 223.372 415.451 221.293 415.569C221.123 415.582 220.966 415.595 220.796 415.608C217.815 415.791 214.807 415.909 211.773 415.961V66.0903C266.305 66.0903 313.409 98.547 334.751 145.153H334.764C334.764 145.153 334.79 145.218 334.803 145.244C342.598 162.323 346.939 181.271 346.939 201.239Z" fill="#62C2E8"/>
<path d="M211.773 66.0903V415.961C211.211 415.961 210.661 415.987 210.099 415.987C209.851 415.987 209.589 415.987 209.34 415.987C208.896 415.987 208.451 415.987 208.007 415.987H207.81C207.039 415.987 206.28 415.987 205.522 415.987C202.056 415.948 198.63 415.817 195.217 415.608C194.969 415.595 194.707 415.582 194.459 415.555C194.302 415.555 194.145 415.542 194.001 415.516C189.542 415.229 185.135 414.797 180.754 414.222C178.295 413.895 175.837 413.529 173.404 413.123C160.288 410.939 147.564 407.513 135.402 402.976C134.055 402.479 132.708 401.956 131.374 401.419C125.489 399.092 119.735 396.503 114.138 393.652C112.556 392.867 111 392.056 109.457 391.219C108.397 390.657 107.351 390.069 106.305 389.48V328.751C111.967 325.011 117.774 321.952 123.75 319.415C128.392 317.453 133.139 315.792 137.965 314.38C135.349 312.667 132.799 310.849 130.315 308.966L130.249 308.914C128.641 307.685 127.045 306.442 125.489 305.148C124.443 304.272 123.41 303.395 122.39 302.493C108.24 289.992 96.7193 274.574 88.7945 257.195C88.3106 256.123 87.8399 255.05 87.3691 253.965L87.3299 253.887C86.8852 252.827 86.4406 251.768 86.0352 250.709C85.1721 248.512 84.3613 246.302 83.6028 244.053C82.8444 241.817 82.1513 239.541 81.5236 237.253C81.2228 236.168 80.9351 235.082 80.6605 233.997C80.2812 232.506 79.9412 231.002 79.6274 229.485C79.4181 228.57 79.235 227.655 79.065 226.726C77.4696 218.475 76.6458 209.962 76.6458 201.239C76.6458 186.279 79.0912 171.869 83.6028 158.4C85.1067 153.914 86.846 149.534 88.7945 145.257C110.097 98.5993 157.215 66.0903 211.773 66.0903Z" fill="#61AFD6"/>
<path d="M106.305 328.751V389.48C103.846 388.107 101.401 386.669 99.0077 385.191C97.2946 384.132 95.6077 383.06 93.9207 381.961C90.5337 379.738 87.2252 377.41 83.982 375.004C79.7057 371.827 75.5472 368.479 71.5325 364.961C82.3081 348.471 93.9207 336.964 106.305 328.751Z" fill="#1C8FC9"/>
<path d="M349.973 359.992C344.232 365.367 338.19 370.414 331.874 375.109C328.605 377.541 325.244 379.882 321.831 382.118C320.249 383.151 318.64 384.171 317.032 385.165C316.692 385.374 316.338 385.596 315.985 385.793V327.091C328.056 334.597 339.407 345.045 349.973 359.992Z" fill="#3299D9"/>
<path d="M360.513 160.623C352.092 152.489 343.304 147.546 334.751 145.166C334.764 145.192 334.777 145.231 334.79 145.257C342.584 162.323 346.926 181.284 346.926 201.252C346.926 221.221 342.584 240.143 334.803 257.182C343.343 254.789 352.105 249.846 360.513 241.712C363.835 238.495 365.653 234.023 365.653 229.394V172.928C365.653 168.299 363.835 163.827 360.513 160.61V160.623Z" fill="#3299D9"/>
<path d="M76.6457 201.239C76.6457 181.284 80.9874 162.336 88.7814 145.257V145.231C80.3335 147.637 71.6502 152.567 63.32 160.61C59.9984 163.826 58.1807 168.299 58.1807 172.928V229.394C58.1807 234.023 59.9984 238.495 63.32 241.712C71.6241 249.754 80.2943 254.684 88.7422 257.103C80.9743 240.077 76.6457 221.168 76.6457 201.252V201.239Z" fill="#1C8FC9"/>
<path d="M301.182 302.493C297.115 306.089 292.812 309.437 288.34 312.523C288.314 312.536 288.301 312.562 288.275 312.575C288.131 312.68 287.974 312.771 287.83 312.863C286.718 313.621 285.594 314.367 284.456 315.099C284.181 315.269 283.92 315.439 283.645 315.609C282.547 316.302 281.422 316.982 280.297 317.649C279.984 317.832 279.683 318.015 279.369 318.185C278.271 318.826 277.172 319.441 276.047 320.042C275.694 320.238 275.354 320.421 275.001 320.604C273.916 321.18 272.817 321.742 271.719 322.291C271.327 322.488 270.947 322.671 270.555 322.867C269.483 323.39 268.397 323.9 267.299 324.384C266.867 324.58 266.449 324.763 266.017 324.959C264.958 325.43 263.872 325.874 262.8 326.319C262.329 326.515 261.872 326.698 261.401 326.881C260.342 327.3 259.282 327.692 258.223 328.084C257.726 328.268 257.216 328.451 256.719 328.634C255.673 329 254.627 329.353 253.568 329.693C253.031 329.863 252.495 330.046 251.959 330.216C250.926 330.543 249.88 330.844 248.834 331.144C248.271 331.301 247.709 331.471 247.134 331.628C246.101 331.903 245.067 332.164 244.034 332.426C243.433 332.57 242.844 332.727 242.243 332.857C241.223 333.093 240.19 333.302 239.157 333.524C238.529 333.655 237.914 333.786 237.286 333.904C236.266 334.1 235.233 334.27 234.2 334.44C233.559 334.544 232.919 334.662 232.278 334.767C231.245 334.924 230.199 335.054 229.165 335.185C228.512 335.264 227.871 335.368 227.23 335.434C226.171 335.551 225.085 335.643 224.013 335.747C223.385 335.8 222.745 335.878 222.117 335.931C220.953 336.022 219.789 336.074 218.612 336.14C218.063 336.166 217.514 336.205 216.964 336.231C215.238 336.297 213.512 336.336 211.773 336.336C210.033 336.336 208.294 336.297 206.581 336.231C206.032 336.205 205.483 336.166 204.933 336.14C203.756 336.074 202.579 336.022 201.416 335.931C200.788 335.878 200.16 335.813 199.532 335.761C198.46 335.669 197.375 335.564 196.315 335.447C195.662 335.368 195.021 335.277 194.38 335.198C193.334 335.067 192.288 334.937 191.255 334.78C190.614 334.675 189.973 334.557 189.345 334.453C188.312 334.283 187.279 334.113 186.259 333.917C185.631 333.799 185.017 333.655 184.402 333.537C183.369 333.328 182.336 333.106 181.316 332.871C180.714 332.727 180.126 332.583 179.524 332.439C178.491 332.177 177.458 331.929 176.425 331.641C175.863 331.484 175.287 331.314 174.725 331.158C173.679 330.857 172.633 330.556 171.599 330.229C171.063 330.059 170.54 329.889 170.004 329.706C168.945 329.366 167.886 329.013 166.839 328.634C166.342 328.451 165.846 328.268 165.349 328.084C164.276 327.692 163.217 327.287 162.158 326.868C161.7 326.685 161.242 326.502 160.772 326.306C159.686 325.861 158.614 325.404 157.541 324.933C157.123 324.75 156.705 324.554 156.273 324.371C155.174 323.874 154.089 323.364 153.004 322.841C152.624 322.658 152.232 322.461 151.853 322.278C150.741 321.729 149.643 321.154 148.544 320.578C148.204 320.395 147.864 320.212 147.524 320.029C146.4 319.415 145.288 318.787 144.177 318.146C143.876 317.976 143.575 317.793 143.287 317.623C142.15 316.956 141.025 316.263 139.9 315.557C139.639 315.4 139.39 315.23 139.129 315.073C137.978 314.341 136.84 313.582 135.716 312.811C135.585 312.719 135.441 312.628 135.31 312.536C135.284 312.523 135.271 312.51 135.258 312.484C130.772 309.385 126.483 306.05 122.403 302.454C122.024 303.225 121.71 304.023 121.448 304.86C119.291 311.817 121.854 319.258 127.843 323.377C152.637 340.468 181.656 349.491 211.786 349.491C241.916 349.491 270.947 340.455 295.742 323.377C301.731 319.245 304.307 311.804 302.136 304.847C301.875 304.01 301.548 303.212 301.182 302.454V302.493Z" fill="#3299D9"/>
<path d="M346.939 201.239C346.939 221.195 342.597 240.143 334.803 257.208C315.724 260.425 295.153 262.844 273.602 264.4C268.79 264.753 263.938 265.054 259.034 265.342C243.629 266.192 227.819 266.61 211.786 266.61C210.086 266.61 208.373 266.61 206.699 266.584C206.424 266.597 206.163 266.584 205.875 266.584C197.61 266.545 189.385 266.362 181.277 266.087C178.687 265.996 176.098 265.891 173.522 265.773C166.774 265.486 160.092 265.12 153.501 264.649C148.453 264.309 143.47 263.917 138.54 263.472C121.161 261.942 104.474 259.837 88.8076 257.182C81.0135 240.13 76.6719 221.181 76.6719 201.226C76.6719 181.271 81.0135 162.323 88.8076 145.244C122.508 139.569 160.863 136.378 200.84 135.894C204.07 135.855 207.3 135.816 210.557 135.816H211.799C217.605 135.816 223.385 135.868 229.126 135.986C234.946 136.104 240.739 136.261 246.493 136.496C249.134 136.601 251.789 136.718 254.418 136.849C262.46 137.241 270.424 137.751 278.257 138.366C287.268 139.085 296.121 139.961 304.752 140.981C315.109 142.171 325.152 143.584 334.817 145.205C342.611 162.27 346.952 181.232 346.952 201.2L346.939 201.239Z" fill="#3C3642"/>
<path d="M304.739 141.02L259.021 265.342C243.616 266.192 227.806 266.61 211.773 266.61C210.073 266.61 208.36 266.61 206.686 266.584L254.405 136.888C262.447 137.28 270.411 137.79 278.244 138.405C287.255 139.124 296.108 140 304.739 141.02Z" fill="white"/>
<path d="M229.113 136.012L181.264 266.074C178.674 265.983 176.085 265.878 173.509 265.76C166.761 265.473 160.078 265.106 153.488 264.636L200.827 135.894C204.057 135.855 207.287 135.816 210.544 135.816H211.786C217.592 135.816 223.372 135.868 229.113 135.986V136.012Z" fill="white"/>
<path d="M168.396 380.457H132.629C128.785 380.457 125.659 377.332 125.659 373.487C125.659 369.643 128.785 366.517 132.629 366.517H168.396C172.24 366.517 175.366 369.643 175.366 373.487C175.366 377.332 172.24 380.457 168.396 380.457Z" fill="#1C8FC9"/>
<path d="M297.769 380.457H262.003C258.158 380.457 255.032 377.332 255.032 373.487C255.032 369.643 258.158 366.517 262.003 366.517H297.769C301.613 366.517 304.739 369.643 304.739 373.487C304.739 377.332 301.613 380.457 297.769 380.457Z" fill="#3299D9"/>
<path d="M175.366 408.272C175.366 410.155 174.607 411.868 173.404 413.123C160.288 410.939 147.564 407.513 135.402 402.975C134.055 402.479 132.708 401.955 131.374 401.419C131.779 401.341 132.198 401.302 132.629 401.302H168.396C172.24 401.302 175.366 404.414 175.366 408.272Z" fill="#1C8FC9"/>
<path d="M284.927 401.302C283.423 401.903 281.906 402.492 280.389 403.054H280.376C272.281 406.062 263.964 408.572 255.425 410.56C255.163 409.841 255.032 409.069 255.032 408.272C255.032 406.336 255.817 404.597 257.072 403.342C258.328 402.086 260.08 401.302 262.003 401.302H284.927Z" fill="#3299D9"/>
<path d="M206.581 336.271C206.032 336.244 205.483 336.205 204.933 336.179C203.756 336.114 202.579 336.061 201.416 335.97C200.788 335.918 200.16 335.852 199.532 335.8C198.46 335.708 197.375 335.604 196.315 335.486C195.662 335.408 195.021 335.316 194.38 335.238C193.334 335.107 192.288 334.976 191.255 334.819C190.614 334.714 189.973 334.597 189.345 334.492C188.312 334.322 187.279 334.152 186.259 333.956C185.631 333.838 185.017 333.694 184.402 333.577C183.369 333.368 182.336 333.145 181.316 332.91C180.714 332.766 180.126 332.622 179.524 332.478C178.491 332.217 177.458 331.968 176.425 331.681C175.863 331.524 175.287 331.354 174.725 331.197C173.679 330.896 172.633 330.595 171.599 330.268C171.063 330.098 170.54 329.928 170.004 329.745C168.945 329.405 167.886 329.052 166.839 328.673C166.342 328.49 165.846 328.307 165.349 328.124C164.276 327.731 163.217 327.326 162.158 326.908C161.7 326.725 161.242 326.541 160.772 326.345C159.686 325.901 158.614 325.443 157.541 324.972C157.123 324.789 156.705 324.593 156.273 324.41C155.174 323.913 154.089 323.403 153.004 322.88C152.624 322.697 152.232 322.501 151.853 322.318C150.741 321.768 149.643 321.193 148.544 320.618C148.204 320.435 147.864 320.251 147.524 320.068C146.4 319.454 145.288 318.826 144.177 318.185C143.876 318.015 143.575 317.832 143.287 317.662C142.15 316.995 141.025 316.302 139.9 315.596C139.639 315.439 139.39 315.269 139.129 315.112C137.978 314.38 136.84 313.622 135.716 312.85C135.585 312.758 135.441 312.667 135.31 312.575C135.284 312.562 135.271 312.549 135.258 312.523C130.772 309.424 126.483 306.089 122.403 302.493C122.024 303.265 121.71 304.062 121.448 304.899C119.291 311.856 121.854 319.297 127.843 323.416C152.637 340.507 181.656 349.531 211.786 349.531V336.362C210.047 336.362 208.307 336.323 206.594 336.258L206.581 336.271Z" fill="#1C8FC9"/>
</g>
<defs>
<clipPath id="clip0_9872_509">
<rect width="416" height="416" fill="white"/>
</clipPath>
</defs>
</svg>
