<svg width="416" height="416" viewBox="0 0 416 416" fill="none" xmlns="http://www.w3.org/2000/svg">
<g clip-path="url(#clip0_9872_550)">
<path d="M416 208C416 247.309 405.094 284.068 386.132 315.426C369.981 342.194 347.946 365 321.831 382.118C320.248 383.151 318.64 384.171 317.031 385.165C313.605 387.283 310.101 389.297 306.53 391.219C306.007 391.507 305.484 391.782 304.961 392.056C297.063 396.241 288.863 399.915 280.389 403.054H280.376C261.649 410.011 241.641 414.352 220.796 415.608C217.265 415.83 213.695 415.948 210.099 415.987C209.85 415.987 209.589 415.987 209.34 415.987C208.896 415.987 208.451 415.987 208.007 415.987H207.81C207.039 415.987 206.28 415.987 205.522 415.987C202.056 415.948 198.63 415.817 195.217 415.608C174.293 414.339 154.207 409.985 135.402 402.975C128.105 400.255 121.004 397.143 114.138 393.652C112.556 392.867 111 392.056 109.456 391.219C105.913 389.31 102.421 387.296 99.0078 385.191C97.2946 384.132 95.6077 383.059 93.9207 381.961C67.9232 364.87 45.9665 342.103 29.8553 315.426C10.9064 284.068 0 247.309 0 208C0 93.1332 93.123 0 208.007 0C322.89 0 416 93.1332 416 208Z" fill="#91C6EE"/>
<path d="M239.928 345.634V300.649H175.68V345.634C175.68 345.634 119.931 352.917 93.9207 381.961C95.6077 383.06 97.2946 384.132 99.0078 385.191C102.421 387.296 105.913 389.31 109.456 391.22C117.774 395.705 126.444 399.641 135.402 402.976C154.207 409.985 174.293 414.339 195.217 415.608C198.63 415.817 202.056 415.948 205.522 415.987C206.28 415.987 207.039 415.987 207.81 415.987H208.007C208.7 415.987 209.406 415.987 210.099 415.987C213.695 415.948 217.265 415.83 220.796 415.608C241.641 414.352 261.649 410.011 280.376 403.054H280.389C289.425 399.706 298.148 395.744 306.53 391.22C310.101 389.297 313.605 387.283 317.031 385.165C318.64 384.171 320.248 383.151 321.831 382.118C295.886 352.944 239.928 345.634 239.928 345.634Z" fill="#FDDCAB"/>
<path d="M90.2722 202.455C92.5868 228.988 109.365 230.584 109.365 230.584L109.613 177.466C109.613 177.466 87.9313 175.909 90.2722 202.455Z" fill="#FDDCAB"/>
<path d="M208.02 71.321C153.239 71.321 108.842 115.73 108.842 170.496V228.256C108.842 283.035 153.252 327.431 208.02 327.431L208.02 71.321Z" fill="#FDDCAB"/>
<path d="M325.296 201.658C322.982 228.191 306.204 229.786 306.204 229.786L305.955 176.668C305.955 176.668 327.637 175.112 325.296 201.658Z" fill="#FFEAD5"/>
<path d="M208.02 71.321L208.02 327.444C262.8 327.444 307.197 283.035 307.197 228.269V170.509C307.197 115.73 262.787 71.3341 208.02 71.3341V71.321Z" fill="#FFEAD5"/>
<path d="M321.831 382.118L304.961 392.056C297.063 396.241 288.863 399.915 280.389 403.054H280.376C261.649 410.011 241.641 414.352 220.796 415.608C217.265 415.83 213.695 415.948 210.099 415.987C209.85 415.987 209.589 415.987 209.34 415.987V386.224H209.38C209.824 386.224 210.23 386.185 210.687 386.185C248.507 385.4 255.372 347.569 255.372 347.569C256.379 347.634 257.36 347.726 258.328 347.87C296.67 353.78 321.831 382.118 321.831 382.118Z" fill="#FEC84B"/>
<path d="M209.34 386.224V415.987C208.896 415.987 208.451 415.987 208.007 415.987H207.81C207.039 415.987 206.28 415.987 205.522 415.987C202.056 415.948 198.63 415.817 195.217 415.608C174.293 414.339 154.207 409.985 135.402 402.975C128.105 400.255 121.004 397.143 114.138 393.652L93.9207 381.961C93.9207 381.961 118.323 353.44 160.366 347.87C161.347 347.739 162.302 347.634 163.322 347.569C163.322 347.569 170.187 385.4 207.993 386.185C208.451 386.185 208.87 386.224 209.314 386.224H209.34Z" fill="#FDB022"/>
<path d="M183.604 187.744H151.395C140.96 187.744 132.525 195.551 132.525 205.188C132.525 214.826 140.973 222.633 151.395 222.633H183.604C194.027 222.633 202.475 214.813 202.475 205.188C202.475 195.564 194.027 187.744 183.604 187.744Z" fill="white"/>
<path d="M183.029 208.575H208.02V201.802H183.474L183.029 208.575Z" fill="white"/>
<path d="M234.985 222.646H267.194C277.63 222.646 286.065 214.839 286.065 205.202C286.065 195.564 277.617 187.757 267.194 187.757H234.985C224.562 187.757 216.114 195.577 216.114 205.202C216.114 214.826 224.562 222.646 234.985 222.646Z" fill="white"/>
<path d="M232.997 201.815H208.02V208.588H232.553L232.997 201.815Z" fill="white"/>
<path d="M284.665 46.0568C285.908 40.1722 285.149 27.8015 207.235 32.5223V98.0895C207.235 98.0895 292.002 127.107 313.383 114.54C313.383 114.54 307.093 90.2565 296.5 75.2312C285.908 60.2059 283.436 51.9544 284.665 46.0699V46.0568Z" fill="#026E78"/>
<path d="M129.805 46.0567C131.047 51.9543 128.562 60.1927 117.97 75.218C107.364 90.2433 101.087 114.527 101.087 114.527C122.468 127.094 207.222 98.0763 207.222 98.0763V32.5091C129.321 27.8014 128.549 40.1721 129.792 46.0436L129.805 46.0567Z" fill="#026E78"/>
<path d="M90.1676 131.278C92.9661 137.608 90.3115 144.368 86.4406 149.677C82.5567 155.013 88.546 164.376 88.546 164.376L87.5783 166.69C84.8452 171.96 90.1807 175.557 90.1807 175.557C90.1807 175.557 109.744 164.964 132.708 158.805C155.685 152.659 208.137 147.938 208.137 147.938V98.0894C162.616 97.7233 124.469 113.167 107.011 113.337C89.5661 113.507 87.3822 124.923 90.1807 131.278H90.1676Z" fill="#015364"/>
<path d="M330.279 149.677C326.395 144.355 323.74 137.608 326.539 131.278C329.337 124.923 327.166 113.52 309.708 113.337C292.25 113.167 253.228 97.7233 207.706 98.0894V147.938C207.706 147.938 261.035 152.659 284.011 158.805C306.975 164.964 326.539 175.557 326.539 175.557C326.539 175.557 331.874 171.96 329.141 166.69L328.173 164.376C328.173 164.376 334.15 155.013 330.292 149.677H330.279Z" fill="#015364"/>
<path d="M342.218 196.44C329.847 197.316 325.584 181.14 325.584 181.14C335.706 146.382 221.803 142.747 208.517 142.433V142.407C208.517 142.407 208.281 142.407 207.876 142.407C207.47 142.407 207.235 142.407 207.235 142.407V142.433C193.949 142.734 80.0458 146.369 90.1676 181.14C90.1676 181.14 85.9044 197.329 73.5333 196.44C61.1623 195.564 115.917 212.211 116.361 181.14C116.361 181.14 123.855 198.114 140.633 201.697C140.633 201.697 139.874 186.293 154.168 177.91C154.168 177.91 169.769 195.119 163.152 206.601C163.152 206.601 202.462 205.45 207.889 181.663C213.303 205.45 252.626 206.601 252.626 206.601C246.009 195.119 261.61 177.91 261.61 177.91C275.891 186.293 275.145 201.697 275.145 201.697C291.923 198.114 299.416 181.14 299.416 181.14C299.861 212.224 354.602 195.577 342.231 196.44H342.218Z" fill="#1F1F24"/>
</g>
<defs>
<clipPath id="clip0_9872_550">
<rect width="416" height="416" fill="white"/>
</clipPath>
</defs>
</svg>
