<svg width="416" height="416" viewBox="0 0 416 416" fill="none" xmlns="http://www.w3.org/2000/svg">
<g clip-path="url(#clip0_9872_588)">
<path d="M416 208C416 247.309 405.094 284.068 386.132 315.426C369.981 342.194 347.946 365 321.831 382.118C320.248 383.151 318.64 384.171 317.031 385.165C313.605 387.283 310.101 389.297 306.53 391.219C306.007 391.507 305.484 391.782 304.961 392.056C297.063 396.241 288.863 399.915 280.389 403.054H280.376C261.649 410.011 241.641 414.352 220.796 415.608C217.265 415.83 213.695 415.948 210.099 415.987C209.85 415.987 209.589 415.987 209.34 415.987C208.896 415.987 208.451 415.987 208.007 415.987H207.81C207.039 415.987 206.28 415.987 205.522 415.987C202.056 415.948 198.63 415.817 195.217 415.608C174.293 414.339 154.207 409.985 135.402 402.975C128.105 400.255 121.004 397.143 114.138 393.652C112.556 392.867 111 392.056 109.456 391.219C105.913 389.31 102.421 387.296 99.0078 385.191C97.2946 384.132 95.6077 383.059 93.9207 381.961C67.9232 364.87 45.9665 342.103 29.8553 315.426C10.9064 284.068 0 247.309 0 208C0 93.1332 93.123 0 208.007 0C322.89 0 416 93.1332 416 208Z" fill="#FAA7E0"/>
<path d="M239.928 345.634V300.649H175.68V345.634C175.68 345.634 119.931 352.917 93.9208 381.961C95.6077 383.06 97.2947 384.132 99.0078 385.191C102.421 387.296 105.913 389.31 109.457 391.22C117.774 395.705 126.444 399.641 135.402 402.976C154.207 409.985 174.293 414.339 195.217 415.608C198.63 415.817 202.056 415.948 205.522 415.987C206.28 415.987 207.039 415.987 207.81 415.987H208.007C208.7 415.987 209.406 415.987 210.099 415.987C213.695 415.948 217.265 415.83 220.796 415.608C241.641 414.352 261.649 410.011 280.376 403.054H280.389C289.425 399.706 298.148 395.744 306.531 391.22C310.101 389.297 313.605 387.283 317.032 385.165C318.64 384.171 320.249 383.151 321.831 382.118C295.886 352.944 239.928 345.634 239.928 345.634Z" fill="#FDDCAB"/>
<path d="M90.2722 202.455C92.5869 228.988 109.365 230.584 109.365 230.584L109.613 177.466C109.613 177.466 87.9314 175.909 90.2722 202.455Z" fill="#FDDCAB"/>
<path d="M208.02 71.321C153.239 71.321 108.842 115.73 108.842 170.496V228.256C108.842 283.035 153.252 327.431 208.02 327.431V71.321Z" fill="#FDDCAB"/>
<path d="M325.296 201.658C322.982 228.191 306.204 229.786 306.204 229.786L305.955 176.668C305.955 176.668 327.637 175.112 325.296 201.658Z" fill="#FFEAD5"/>
<path d="M208.02 71.321V327.444C262.8 327.444 307.197 283.035 307.197 228.269V170.509C307.197 115.73 262.787 71.3341 208.02 71.3341V71.321Z" fill="#FFEAD5"/>
<path d="M321.831 382.118L304.961 392.056C297.063 396.241 288.863 399.915 280.389 403.054H280.376C261.649 410.011 241.641 414.352 220.796 415.608C217.265 415.83 213.695 415.948 210.099 415.987C209.85 415.987 209.589 415.987 209.34 415.987V386.224H209.38C209.824 386.224 210.23 386.185 210.687 386.185C248.507 385.4 255.372 347.569 255.372 347.569C256.379 347.634 257.36 347.726 258.328 347.87C296.67 353.78 321.831 382.118 321.831 382.118Z" fill="#FEC84B"/>
<path d="M209.34 386.224V415.987C208.896 415.987 208.451 415.987 208.007 415.987H207.81C207.039 415.987 206.28 415.987 205.522 415.987C202.056 415.948 198.63 415.817 195.217 415.608C174.293 414.339 154.207 409.985 135.402 402.975C128.105 400.255 121.004 397.143 114.138 393.652L93.9208 381.961C93.9208 381.961 118.323 353.44 160.366 347.87C161.347 347.739 162.302 347.634 163.322 347.569C163.322 347.569 170.187 385.4 207.994 386.185C208.451 386.185 208.87 386.224 209.314 386.224H209.34Z" fill="#FDB022"/>
<path d="M257.007 263.707C248.18 246.394 229.493 234.441 207.876 234.441C186.259 234.441 167.572 246.381 158.745 263.707H171.953L177.903 253.22L177.34 263.707L184.86 252.592L183.879 263.707H236.031L234.226 253.9L243.381 263.707H257.007Z" fill="black"/>
<path d="M124.378 156.922C118.362 92.3355 197.427 54.4258 207.797 129.134L207.876 71.321C122.586 71.321 106.396 122.321 108.842 177.453C108.842 177.609 124.391 156.922 124.391 156.922H124.378Z" fill="black"/>
<path d="M291.465 156.922C297.481 92.3355 218.416 54.4258 208.046 129.134L207.967 71.321C293.257 71.321 309.447 122.321 307.001 177.453C307.001 177.609 291.452 156.922 291.452 156.922H291.465Z" fill="black"/>
</g>
<defs>
<clipPath id="clip0_9872_588">
<rect width="416" height="416" fill="white"/>
</clipPath>
</defs>
</svg>
