<svg width="416" height="416" viewBox="0 0 416 416" fill="none" xmlns="http://www.w3.org/2000/svg">
<g clip-path="url(#clip0_9872_602)">
<path d="M416 208C416 247.309 405.094 284.068 386.132 315.426C369.981 342.194 347.946 365 321.831 382.118C320.248 383.151 318.64 384.171 317.031 385.165C313.605 387.283 310.101 389.297 306.53 391.219C298.148 395.744 289.425 399.706 280.389 403.054H280.376C261.649 410.011 241.641 414.352 220.796 415.608C217.265 415.83 213.695 415.948 210.099 415.987C209.406 415.987 208.7 415.987 208.007 415.987H207.81C207.039 415.987 206.28 415.987 205.522 415.987C202.056 415.948 198.63 415.817 195.217 415.608C174.293 414.339 154.207 409.985 135.402 402.975C126.444 399.641 117.774 395.705 109.456 391.219C105.913 389.31 102.421 387.296 99.0078 385.191C97.2946 384.132 95.6077 383.059 93.9207 381.961C67.9232 364.87 45.9665 342.103 29.8553 315.426C10.9064 284.068 0 247.309 0 208C0 93.1332 93.123 0 208.007 0C322.89 0 416 93.1332 416 208Z" fill="#FF9D83"/>
<path d="M321.831 382.118C320.248 383.151 318.64 384.171 317.031 385.165C313.605 387.283 310.101 389.297 306.53 391.219C298.148 395.744 289.425 399.706 280.389 403.054H280.376C261.649 410.011 241.641 414.352 220.796 415.608C217.265 415.83 213.695 415.948 210.099 415.987C209.406 415.987 208.7 415.987 208.007 415.987H207.81C207.039 415.987 206.28 415.987 205.522 415.987L207.758 335.133H239.928V345.634C239.928 345.634 295.886 352.943 321.831 382.118Z" fill="#EBEAED"/>
<path d="M227.492 361.705L239.941 345.634V335.133H210.4L227.492 361.705Z" fill="white"/>
<path d="M207.81 416C207.039 416 206.28 416 205.522 416C202.056 415.961 198.63 415.83 195.217 415.621C174.293 414.352 154.207 409.998 135.402 402.989C126.444 399.654 117.774 395.718 109.456 391.232C105.913 389.323 102.421 387.309 99.0078 385.204C97.2946 384.145 95.6077 383.073 93.9207 381.974C119.931 352.93 175.68 345.647 175.68 345.647V335.146H207.863L210.099 416C209.406 416 208.7 416 208.007 416H207.81Z" fill="#F2F4F7"/>
<path d="M188.129 361.705L175.68 345.634V335.133H205.208L188.129 361.705Z" fill="white"/>
<path d="M90.2722 202.455C92.5868 228.988 109.365 230.584 109.365 230.584L109.613 177.466C109.613 177.466 87.9313 175.909 90.2722 202.455Z" fill="#FDDCAB"/>
<path d="M208.02 71.321C153.239 71.321 108.842 115.73 108.842 170.496V228.256C108.842 283.035 153.252 327.431 208.02 327.431V71.321Z" fill="#FDDCAB"/>
<path d="M325.309 201.658C322.995 228.191 306.217 229.786 306.217 229.786L305.968 176.668C305.968 176.668 327.65 175.112 325.309 201.658Z" fill="#FFEAD5"/>
<path d="M208.02 71.321V327.444C262.8 327.444 307.197 283.035 307.197 228.269V170.509C307.197 115.73 262.787 71.3341 208.02 71.3341V71.321Z" fill="#FFEAD5"/>
<path d="M236.75 260.242C236.75 260.242 250.821 282.42 207.81 282.42V345.215C207.81 345.215 258.419 343.411 253.646 266.323L236.75 260.242Z" fill="white"/>
<path d="M232.317 244.157C219.331 234.284 207.797 250.905 207.797 250.905C226.328 281.962 250.011 268.676 253.633 266.323C251.619 265.146 243.511 252.67 232.304 244.157H232.317Z" fill="white"/>
<path d="M178.857 260.242C178.857 260.242 164.865 282.42 207.797 282.42V345.215C207.797 345.215 157.188 343.411 161.962 266.323L178.857 260.242Z" fill="#F2F4F7"/>
<path d="M183.291 244.157C196.276 234.284 207.81 250.905 207.81 250.905C189.28 281.962 165.597 268.676 161.975 266.323C163.989 265.146 172.096 252.67 183.304 244.157H183.291Z" fill="#F2F4F7"/>
<path d="M241.458 292.973C241.458 282.616 226.511 274.221 208.033 274.156V311.791C226.511 311.725 241.458 303.33 241.458 292.973Z" fill="white"/>
<path d="M207.81 274.156C189.228 274.156 174.163 282.577 174.163 292.973C174.163 303.369 189.228 311.791 207.81 311.791C207.889 311.791 207.967 311.791 208.033 311.791V274.156C207.954 274.156 207.876 274.156 207.81 274.156Z" fill="#F2F4F7"/>
</g>
<defs>
<clipPath id="clip0_9872_602">
<rect width="416" height="416" fill="white"/>
</clipPath>
</defs>
</svg>
