<svg width="416" height="416" viewBox="0 0 416 416" fill="none" xmlns="http://www.w3.org/2000/svg">
<g clip-path="url(#clip0_9872_640)">
<path d="M416 208C416 247.309 405.094 284.068 386.132 315.426C369.981 342.194 347.946 365 321.831 382.118C320.248 383.151 318.64 384.171 317.031 385.165C313.605 387.283 310.101 389.297 306.53 391.219C298.148 395.744 289.425 399.706 280.389 403.054H280.376C261.649 410.011 241.641 414.352 220.796 415.608C217.265 415.83 213.695 415.948 210.099 415.987C209.406 415.987 208.7 415.987 208.007 415.987H207.81C207.039 415.987 206.28 415.987 205.522 415.987C202.056 415.948 198.63 415.817 195.217 415.608C174.293 414.339 154.207 409.985 135.402 402.975C126.444 399.641 117.774 395.705 109.456 391.219C105.913 389.31 102.421 387.296 99.0078 385.191C97.2946 384.132 95.6077 383.059 93.9207 381.961C67.9232 364.87 45.9665 342.103 29.8553 315.426C10.9064 284.068 0 247.309 0 208C0 93.1332 93.123 0 208.007 0C322.89 0 416 93.1332 416 208Z" fill="#E3E2FC"/>
<path d="M321.831 382.118C320.248 383.151 318.64 384.171 317.031 385.165C313.605 387.283 310.101 389.297 306.53 391.219C298.148 395.744 289.425 399.706 280.389 403.054H280.376C261.649 410.011 241.641 414.352 220.796 415.608C217.265 415.83 213.695 415.948 210.099 415.987C209.406 415.987 208.7 415.987 208.007 415.987H207.81C207.039 415.987 206.28 415.987 205.522 415.987L207.758 335.133H239.928V345.634C239.928 345.634 295.886 352.943 321.831 382.118Z" fill="#FB6514"/>
<path d="M227.492 361.705L239.941 345.634V335.133H210.4L227.492 361.705Z" fill="#ECEBEE"/>
<path d="M207.81 416C207.039 416 206.28 416 205.522 416C202.056 415.961 198.63 415.83 195.217 415.621C174.293 414.352 154.207 409.998 135.402 402.989C126.444 399.654 117.774 395.718 109.456 391.232C105.913 389.323 102.421 387.309 99.0078 385.204C97.2946 384.145 95.6077 383.073 93.9207 381.974C119.931 352.93 175.68 345.647 175.68 345.647V335.146H207.863L210.099 416C209.406 416 208.7 416 208.007 416H207.81Z" fill="#EC4A0A"/>
<path d="M188.129 361.705L175.68 345.634V335.133H205.208L188.129 361.705Z" fill="#ECEBEE"/>
<path d="M90.2722 202.455C92.5868 228.988 109.365 230.584 109.365 230.584L109.613 177.466C109.613 177.466 87.9313 175.909 90.2722 202.455Z" fill="#FDDCAB"/>
<path d="M208.02 69.1895C153.239 69.1895 108.842 113.598 108.842 168.364V228.256C108.842 283.035 153.252 327.431 208.02 327.431V69.1895Z" fill="#FDDCAB"/>
<path d="M325.309 201.658C322.995 228.191 306.217 229.786 306.217 229.786L305.968 176.668C305.968 176.668 327.65 175.112 325.309 201.658Z" fill="#FFEAD5"/>
<path d="M208.02 69.1895V327.444C262.8 327.444 307.197 283.035 307.197 228.269V168.377C307.197 113.598 262.787 69.2025 208.02 69.2025V69.1895Z" fill="#FFEAD5"/>
<path d="M231.166 245.308C212.061 241.215 208.02 265.093 208.02 265.093C243.904 289.338 262.826 262.896 265.573 258.503C262.787 258.241 247.657 248.839 231.179 245.308H231.166Z" fill="black"/>
<path d="M184.886 245.295C203.979 241.124 208.111 265.002 208.111 265.002C172.319 289.377 153.291 263.001 150.545 258.62C153.331 258.346 168.422 248.891 184.899 245.295H184.886Z" fill="black"/>
<path d="M112.425 216.918L108.371 222.908C114.714 363.117 208.046 353.14 208.046 353.14V315.335C118.99 334.335 112.425 216.918 112.425 216.918Z" fill="black"/>
<path d="M208.046 315.335V353.14C208.046 353.14 302.79 363.117 309.133 222.908L305.079 216.918C305.079 216.918 297.102 334.348 208.046 315.335Z" fill="#2F3030"/>
<path d="M162.72 225.863C181.498 225.863 196.721 210.641 196.721 191.863C196.721 173.086 181.498 157.863 162.72 157.863C143.942 157.863 128.719 173.086 128.719 191.863C128.719 210.641 143.942 225.863 162.72 225.863Z" fill="black"/>
<path d="M162.72 219.586C178.031 219.586 190.444 207.174 190.444 191.863C190.444 176.552 178.031 164.14 162.72 164.14C147.409 164.14 134.996 176.552 134.996 191.863C134.996 207.174 147.409 219.586 162.72 219.586Z" fill="white"/>
<path d="M253.437 225.863C272.215 225.863 287.438 210.641 287.438 191.863C287.438 173.086 272.215 157.863 253.437 157.863C234.659 157.863 219.436 173.086 219.436 191.863C219.436 210.641 234.659 225.863 253.437 225.863Z" fill="black"/>
<path d="M253.437 219.586C268.748 219.586 281.161 207.174 281.161 191.863C281.161 176.552 268.748 164.14 253.437 164.14C238.125 164.14 225.713 176.552 225.713 191.863C225.713 207.174 238.125 219.586 253.437 219.586Z" fill="white"/>
<path d="M312.202 177.469L283.406 190.847L280.866 185.38L304.194 174.542C307.207 173.143 310.802 174.457 312.202 177.469Z" fill="black"/>
<path d="M111.652 175.103L134.98 185.941L132.44 191.409L103.645 178.03C105.044 175.018 108.64 173.704 111.652 175.103Z" fill="black"/>
<path d="M222.64 188.398H193.373V193.472H222.64V188.398Z" fill="black"/>
</g>
<defs>
<clipPath id="clip0_9872_640">
<rect width="416" height="416" fill="white"/>
</clipPath>
</defs>
</svg>
