<svg width="416" height="416" viewBox="0 0 416 416" fill="none" xmlns="http://www.w3.org/2000/svg">
<g clip-path="url(#clip0_9872_663)">
<path d="M416 208C416 247.309 405.094 284.068 386.132 315.426C369.981 342.194 347.946 365 321.831 382.118C320.248 383.151 318.64 384.171 317.031 385.165C313.605 387.283 310.101 389.297 306.53 391.219C298.148 395.744 289.425 399.706 280.389 403.054H280.376C261.649 410.011 241.641 414.352 220.796 415.608C217.265 415.83 213.695 415.948 210.099 415.987C209.406 415.987 208.7 415.987 208.007 415.987H207.81C207.039 415.987 206.28 415.987 205.522 415.987C202.056 415.948 198.63 415.817 195.217 415.608C174.293 414.339 154.207 409.985 135.402 402.975C126.444 399.641 117.774 395.705 109.456 391.219C105.913 389.31 102.421 387.296 99.0078 385.191C97.2946 384.132 95.6077 383.059 93.9207 381.961C67.9232 364.87 45.9665 342.103 29.8553 315.426C10.9064 284.068 0 247.309 0 208C0 93.1332 93.123 0 208.007 0C322.89 0 416 93.1332 416 208Z" fill="#C6E4F6"/>
<path d="M321.831 382.118C320.248 383.151 318.64 384.171 317.031 385.165C313.605 387.283 310.101 389.297 306.53 391.219C298.148 395.744 289.425 399.706 280.389 403.054H280.376C261.649 410.011 241.641 414.352 220.796 415.608C217.265 415.83 213.695 415.948 210.099 415.987C209.406 415.987 208.7 415.987 208.007 415.987H207.81C207.039 415.987 206.28 415.987 205.522 415.987L207.758 335.133H239.928V345.634C239.928 345.634 295.886 352.943 321.831 382.118Z" fill="#CFCFCF"/>
<path d="M227.492 361.705L239.941 345.634V335.133H210.4L227.492 361.705Z" fill="#ECEBEE"/>
<path d="M207.81 416C207.039 416 206.28 416 205.522 416C202.056 415.961 198.63 415.83 195.217 415.621C174.293 414.352 154.207 409.998 135.402 402.989C126.444 399.654 117.774 395.718 109.456 391.232C105.913 389.323 102.421 387.309 99.0078 385.204C97.2946 384.145 95.6077 383.073 93.9207 381.974C119.931 352.93 175.68 345.647 175.68 345.647V335.146H207.863L210.099 416C209.406 416 208.7 416 208.007 416H207.81Z" fill="#B1B1B3"/>
<path d="M188.129 361.705L175.68 345.634V335.133H205.208L188.129 361.705Z" fill="#ECEBEE"/>
<path d="M207.967 61.9579C207.091 46.9719 194.668 35.0981 179.459 35.0981C166.669 35.0981 155.841 43.5065 152.206 55.1057C149.643 53.5888 146.661 52.6865 143.47 52.6865C134.016 52.6865 126.352 60.3495 126.352 69.804C126.352 70.1048 126.378 70.3925 126.392 70.6802C124.574 70.1179 122.625 69.804 120.624 69.804C109.914 69.804 101.231 78.4871 101.231 89.197C101.231 90.2562 101.336 91.2893 101.506 92.2962C100.996 92.2439 100.486 92.2177 99.9624 92.2177C91.9853 92.2177 85.5121 98.6908 85.5121 106.668C85.5121 109.662 86.4275 112.448 87.9837 114.762C74.2264 116.868 63.6731 129.238 63.6731 144.198C63.6731 153.888 68.1063 162.493 74.9718 167.919C69.924 172.797 66.7724 179.623 66.7724 187.208C66.7724 202.024 78.7773 214.028 93.5938 214.028H96.0523C96.4185 214.028 96.7846 214.028 97.1639 214.028H108.698L208.033 101.228V61.971C208.033 61.971 207.993 61.971 207.98 61.971L207.967 61.9579Z" fill="black"/>
<path d="M208.072 61.9579C208.948 46.9719 221.371 35.0981 236.58 35.0981C249.37 35.0981 260.198 43.5065 263.833 55.1057C266.396 53.5888 269.378 52.6865 272.569 52.6865C282.024 52.6865 289.687 60.3495 289.687 69.804C289.687 70.1048 289.661 70.3925 289.648 70.6802C291.465 70.1179 293.414 69.804 295.415 69.804C306.125 69.804 314.808 78.4871 314.808 89.197C314.808 90.2562 314.704 91.2893 314.534 92.2962C315.044 92.2439 315.554 92.2177 316.077 92.2177C324.054 92.2177 330.527 98.6908 330.527 106.668C330.527 109.662 329.612 112.448 328.056 114.762C341.813 116.868 352.366 129.238 352.366 144.198C352.366 153.888 347.933 162.493 341.067 167.919C346.115 172.797 349.267 179.623 349.267 187.208C349.267 202.024 337.262 214.028 322.445 214.028H319.987C319.621 214.028 319.255 214.028 318.875 214.028H307.341L208.007 101.228V61.971C208.007 61.971 208.046 61.971 208.059 61.971L208.072 61.9579Z" fill="#2F3030"/>
<path d="M90.2722 202.455C92.5868 228.988 109.365 230.584 109.365 230.584L109.613 177.466C109.613 177.466 87.9313 175.909 90.2722 202.455Z" fill="#FDDCAB"/>
<path d="M108.842 118.437V228.256C108.842 283.035 153.252 327.431 208.02 327.431V118.437H108.842Z" fill="#FDDCAB"/>
<path d="M325.309 201.658C322.995 228.191 306.217 229.786 306.217 229.786L305.968 176.668C305.968 176.668 327.65 175.112 325.309 201.658Z" fill="#FFEAD5"/>
<path d="M208.02 118.437V327.444C262.8 327.444 307.197 283.035 307.197 228.269V118.437H208.02Z" fill="#FFEAD5"/>
<path d="M236.75 260.242C236.75 260.242 250.821 282.42 207.81 282.42V345.215C207.81 345.215 258.419 343.411 253.646 266.323L236.75 260.242Z" fill="black"/>
<path d="M232.317 244.157C219.331 234.284 207.797 250.905 207.797 250.905C226.328 281.962 250.011 268.676 253.633 266.323C251.619 265.146 243.511 252.67 232.304 244.157H232.317Z" fill="black"/>
<path d="M178.857 260.242C178.857 260.242 164.865 282.42 207.797 282.42V345.215C207.797 345.215 157.188 343.411 161.962 266.323L178.857 260.242Z" fill="black"/>
<path d="M183.291 244.157C196.276 234.284 207.81 250.905 207.81 250.905C189.28 281.962 165.597 268.676 161.975 266.323C163.989 265.146 172.096 252.67 183.304 244.157H183.291Z" fill="black"/>
<path d="M207.81 311.791C226.394 311.791 241.458 303.366 241.458 292.973C241.458 282.581 226.394 274.156 207.81 274.156C189.227 274.156 174.163 282.581 174.163 292.973C174.163 303.366 189.227 311.791 207.81 311.791Z" fill="black"/>
<path d="M176.464 59.7219C75.7957 83.9664 108.842 177.453 108.842 177.453L123.763 155.457C112.961 132.861 165.427 106.628 207.313 125.668C248.193 144.251 206.921 61.9581 206.921 61.9581C195.152 61.265 176.464 59.7219 176.464 59.7219Z" fill="black"/>
<path d="M253.607 60.8073C253.607 60.8073 218.691 61.2519 206.921 61.958L207.313 125.668C207.313 125.668 257.622 146.186 289.112 131.736C296.644 128.284 296.618 145.689 291.871 155.601L307.21 176.681C307.21 176.681 334.973 87.8763 253.607 60.8203V60.8073Z" fill="#2F3030"/>
</g>
<defs>
<clipPath id="clip0_9872_663">
<rect width="416" height="416" fill="white"/>
</clipPath>
</defs>
</svg>
