<svg width="416" height="416" viewBox="0 0 416 416" fill="none" xmlns="http://www.w3.org/2000/svg">
<g clip-path="url(#clip0_9872_529)">
<path d="M416 208C416 247.309 405.094 284.068 386.132 315.426C372.1 338.69 353.622 358.959 331.874 375.109C328.605 377.541 325.244 379.882 321.831 382.118C320.248 383.151 318.64 384.171 317.031 385.165C313.605 387.283 310.101 389.297 306.53 391.219C306.007 391.507 305.484 391.782 304.961 392.056C297.063 396.241 288.863 399.915 280.389 403.054H280.376C265.952 408.415 250.769 412.221 235.024 414.248C232.539 414.588 230.029 414.862 227.518 415.085C225.452 415.281 223.372 415.451 221.293 415.568C221.123 415.582 220.966 415.595 220.796 415.608C217.265 415.83 213.695 415.948 210.099 415.987C209.85 415.987 209.589 415.987 209.34 415.987C208.896 415.987 208.451 415.987 208.007 415.987H207.81C207.039 415.987 206.28 415.987 205.522 415.987C202.056 415.948 198.63 415.817 195.217 415.608C194.969 415.595 194.707 415.582 194.459 415.555C194.302 415.555 194.145 415.542 194.001 415.516C189.541 415.228 185.134 414.797 180.754 414.222C165.022 412.168 149.826 408.35 135.402 402.975C128.105 400.255 121.004 397.143 114.138 393.652C112.556 392.867 111 392.056 109.456 391.219C105.913 389.31 102.421 387.296 99.0078 385.191C97.2946 384.132 95.6077 383.059 93.9207 381.961C90.5337 379.738 87.2252 377.41 83.982 375.004C62.313 358.88 43.8741 338.638 29.8553 315.426C10.9064 284.068 0 247.309 0 208C0 93.1332 93.123 0 208.007 0C322.89 0 416 93.1332 416 208Z" fill="#91C6EE"/>
<path d="M239.928 345.634V300.649H175.68V345.634C175.68 345.634 119.931 352.917 93.9207 381.961C95.6077 383.06 97.2946 384.132 99.0078 385.191C102.421 387.296 105.913 389.31 109.456 391.22C117.774 395.705 126.444 399.641 135.402 402.976C154.207 409.985 174.293 414.339 195.217 415.608C198.63 415.817 202.056 415.948 205.522 415.987C206.28 415.987 207.039 415.987 207.81 415.987H208.007C208.7 415.987 209.406 415.987 210.099 415.987C213.695 415.948 217.265 415.83 220.796 415.608C241.641 414.352 261.649 410.011 280.376 403.054H280.389C289.425 399.706 298.148 395.744 306.53 391.22C310.101 389.297 313.605 387.283 317.031 385.165C318.64 384.171 320.248 383.151 321.831 382.118C295.886 352.944 239.928 345.634 239.928 345.634Z" fill="#FDDCAB"/>
<path d="M90.2722 202.455C92.5868 228.988 109.365 230.584 109.365 230.584L109.613 177.466C109.613 177.466 87.9313 175.909 90.2722 202.455Z" fill="#FDDCAB"/>
<path d="M208.02 71.321C153.239 71.321 108.842 115.73 108.842 170.496V228.256C108.842 283.035 153.252 327.431 208.02 327.431V71.321Z" fill="#FDDCAB"/>
<path d="M325.309 201.658C322.995 228.191 306.217 229.786 306.217 229.786L305.968 176.668C305.968 176.668 327.65 175.112 325.309 201.658Z" fill="#FFEAD5"/>
<path d="M208.02 71.321V327.444C262.8 327.444 307.197 283.035 307.197 228.269V170.509C307.197 115.73 262.787 71.3341 208.02 71.3341V71.321Z" fill="#FFEAD5"/>
<path d="M192.523 212.328V186.436C192.523 185.704 191.948 185.129 191.294 185.129H140.162V212.158C140.162 219.194 145.864 224.895 152.899 224.895H179.93C186.874 224.895 192.51 219.259 192.51 212.315L192.523 212.328ZM200.696 176.969V212.328C200.696 223.784 191.412 233.068 179.956 233.068H153.004C141.456 233.068 132.015 223.627 132.015 212.08V178.682C132.015 177.74 132.786 176.969 133.728 176.969H200.696Z" fill="#1F1F24"/>
<path d="M223.529 214.055V186.449C223.529 185.717 224.105 185.142 224.758 185.142H275.891V213.898C275.891 219.992 270.96 224.921 264.866 224.921H234.396C228.394 224.921 223.529 220.057 223.529 214.055ZM215.356 176.969V214.055C215.356 224.568 223.869 233.081 234.383 233.081H264.775C275.38 233.081 284.051 224.411 284.051 213.806V176.969H215.356Z" fill="#1F1F24"/>
<path d="M136.056 185.142H111.3L108.842 176.969H136.056V185.142Z" fill="#1F1F24"/>
<path d="M279.984 185.142H304.752L307.21 176.969H279.984V185.142Z" fill="#1F1F24"/>
<path d="M217.304 176.969H198.748V185.142H217.304V176.969Z" fill="#1F1F24"/>
<path d="M244.296 365.523L230.852 405.238L229.976 407.801L227.518 415.085C225.452 415.281 223.372 415.451 221.293 415.568C221.123 415.582 220.966 415.595 220.796 415.608C217.265 415.83 213.695 415.948 210.099 415.987C209.85 415.987 209.589 415.987 209.34 415.987C208.896 415.987 208.451 415.987 208.007 415.987H207.81C207.039 415.987 206.28 415.987 205.522 415.987C202.056 415.948 198.63 415.817 195.217 415.608C194.969 415.595 194.707 415.582 194.459 415.555C194.302 415.555 194.145 415.542 194.001 415.516L182.127 366.23L182.676 366.112C182.767 366.151 182.859 366.19 182.951 366.23C191.32 369.773 201.507 371.866 212.479 371.866C219.41 371.866 226.001 371.029 232.029 369.525C235.756 368.61 239.248 367.42 242.465 366.02L244.296 365.523Z" fill="white"/>
<path d="M182.951 366.23L194.459 415.555C194.302 415.555 194.145 415.542 194.001 415.516C189.541 415.229 185.134 414.797 180.754 414.222C165.022 412.169 149.826 408.35 135.402 402.976C128.105 400.256 121.004 397.143 114.138 393.652C112.556 392.867 111 392.056 109.456 391.22C105.913 389.31 102.421 387.296 99.0078 385.191C97.2947 384.132 95.6077 383.06 93.9207 381.961C90.5337 379.738 87.2252 377.41 83.982 375.004C99.8316 358.174 127.477 341.109 175.64 334.885L182.951 366.23Z" fill="#5494CD"/>
<path d="M194.459 415.555C194.302 415.555 194.145 415.542 194.001 415.516C189.542 415.229 185.134 414.797 180.754 414.222L186.926 406.323L142.307 382.34L164.499 336.598L175.64 334.885L182.951 366.23L194.459 415.555Z" fill="#29609B"/>
<path d="M331.874 375.109C328.605 377.541 325.244 379.882 321.831 382.118C320.249 383.151 318.64 384.171 317.031 385.165C313.605 387.283 310.101 389.297 306.53 391.22C306.007 391.507 305.484 391.782 304.961 392.056C297.063 396.241 288.863 399.916 280.389 403.054H280.376C265.952 408.416 250.769 412.221 235.024 414.248C232.539 414.588 230.029 414.862 227.518 415.085C225.452 415.281 223.372 415.451 221.293 415.569L232.029 369.525L240.111 334.885C288.366 341.122 316.038 358.253 331.874 375.109Z" fill="#5494CD"/>
<path d="M229.976 407.801L235.024 414.248C232.539 414.588 230.029 414.862 227.518 415.085C225.452 415.281 223.372 415.451 221.293 415.569L232.029 369.525L240.111 334.885L251.253 336.598L273.458 382.34L230.852 405.238L228.826 406.323L229.976 407.801Z" fill="#29609B"/>
</g>
<defs>
<clipPath id="clip0_9872_529">
<rect width="416" height="416" fill="white"/>
</clipPath>
</defs>
</svg>
