<svg width="416" height="416" viewBox="0 0 416 416" fill="none" xmlns="http://www.w3.org/2000/svg">
<g clip-path="url(#clip0_9872_281)">
<path d="M416 208C416 247.309 405.094 284.068 386.132 315.426C375.617 332.858 362.606 348.615 347.593 362.202C338.151 370.754 327.925 378.456 317.031 385.165C313.605 387.283 310.101 389.297 306.53 391.219C298.148 395.744 289.425 399.706 280.389 403.054H280.376C261.649 410.011 241.641 414.352 220.796 415.608C216.572 415.869 212.309 416 208.007 416H207.81C203.573 416 199.376 415.869 195.217 415.608C174.293 414.339 154.207 409.985 135.402 402.975C126.444 399.641 117.774 395.705 109.456 391.219C105.913 389.31 102.421 387.296 99.0078 385.191C88.1013 378.47 77.8619 370.767 68.407 362.202C53.4074 348.615 40.3825 332.858 29.8553 315.426C10.9064 284.068 0 247.309 0 208C0 93.1332 93.123 0 208.007 0C322.89 0 416 93.1332 416 208Z" fill="#FD853A"/>
<path d="M208.19 85.274V415.608H195.217C174.293 414.339 154.207 409.985 135.402 402.976C126.444 399.641 117.774 395.705 109.456 391.219C105.913 389.31 102.421 387.296 99.0078 385.191C88.1014 378.47 77.8619 370.767 68.407 362.202C70.264 240.901 83.472 161.957 111.784 125.028C167.075 52.8958 206.019 85.274 206.019 85.274H208.19Z" fill="black"/>
<path d="M347.593 362.202C338.151 370.754 327.925 378.456 317.031 385.165C313.605 387.283 310.101 389.297 306.53 391.219C298.148 395.744 289.425 399.706 280.389 403.054H280.376C261.649 410.011 241.641 414.352 220.796 415.608H207.81V85.274H209.981C209.981 85.274 248.925 52.8958 304.216 125.028C332.528 161.957 345.736 240.901 347.593 362.202Z" fill="black"/>
<path d="M227.06 317.571H188.561V356.017H227.06V317.571Z" fill="#FDDCAB"/>
<path d="M208.36 356.017V415.608H195.217C174.293 414.339 154.207 409.985 135.402 402.975C126.444 399.641 117.774 395.705 109.456 391.219C105.913 389.31 102.421 387.296 99.0078 385.191C112.974 375.41 133.545 365.602 163.505 359.717C163.505 359.717 163.649 359.691 163.897 359.639C166.604 359.116 169.403 358.619 172.266 358.148C177.432 357.324 182.859 356.605 188.561 356.017H208.36Z" fill="#FDDCAB"/>
<path d="M317.031 385.165C313.605 387.283 310.101 389.297 306.53 391.219C298.148 395.744 289.425 399.706 280.389 403.054H280.376C261.649 410.011 241.641 414.352 220.796 415.608H208.36V356.017H227.047C232.788 356.605 238.267 357.337 243.485 358.174C246.493 358.658 249.409 359.181 252.247 359.744C282.181 365.628 302.895 375.41 317.031 385.165Z" fill="#FFEAD5"/>
<path d="M207.928 400.949V416H207.81C203.573 416 199.376 415.869 195.217 415.608C174.293 414.339 154.207 409.985 135.402 402.975C144.87 387.453 159.908 363.157 163.505 359.717C163.505 359.717 163.649 359.691 163.897 359.639C165.257 359.351 169.821 358.423 172.266 358.148C172.266 358.148 157.999 399.275 207.81 400.949H207.928Z" fill="#97F8C0"/>
<path d="M280.376 403.054C261.649 410.011 241.641 414.352 220.796 415.608C216.572 415.869 212.309 416 208.007 416H207.81V400.949H207.928C208.072 400.935 208.216 400.935 208.36 400.922C256.942 399.066 243.864 359.312 243.485 358.174C243.472 358.161 243.472 358.148 243.472 358.148C246.375 358.475 252.221 359.717 252.221 359.717L252.247 359.744C255.882 363.274 270.934 387.558 280.376 403.054Z" fill="#CAFBDA"/>
<path d="M90.2722 202.455C92.5868 228.988 109.365 230.584 109.365 230.584L109.613 177.466C109.613 177.466 87.9313 175.909 90.2722 202.455Z" fill="#FDDCAB"/>
<path d="M108.842 118.437V228.256C108.842 283.035 153.252 327.431 208.02 327.431V118.437H108.842Z" fill="#FDDCAB"/>
<path d="M325.309 201.658C322.995 228.191 306.217 229.786 306.217 229.786L305.968 176.668C305.968 176.668 327.65 175.112 325.309 201.658Z" fill="#FFEAD5"/>
<path d="M208.02 118.437V327.444C262.8 327.444 307.197 283.035 307.197 228.269V118.437H208.02Z" fill="#FFEAD5"/>
<path d="M314.285 146.67C314.285 151.966 313.893 157.197 313.134 162.283H103.585C102.826 157.197 102.434 151.966 102.434 146.67C102.434 139.255 103.192 132.011 104.644 125.014C114.648 76.9048 157.267 40.7343 208.36 40.7343C259.452 40.7343 302.084 76.9048 312.075 125.014C313.54 132.011 314.298 139.242 314.298 146.67H314.285Z" fill="#CAFBDA"/>
<path d="M108.502 144.512C99.4786 157.367 108.842 177.439 108.842 177.439L171.547 154.267C171.547 154.267 117.525 131.658 108.502 144.499V144.512Z" fill="black"/>
<path d="M314.481 125.028H101.911C96.2558 125.028 91.6714 129.612 91.6714 135.267V152.057C91.6714 157.712 96.2558 162.296 101.911 162.296H314.481C320.137 162.296 324.721 157.712 324.721 152.057V135.267C324.721 129.612 320.137 125.028 314.481 125.028Z" fill="#97F8C0"/>
</g>
<defs>
<clipPath id="clip0_9872_281">
<rect width="416" height="416" fill="white"/>
</clipPath>
</defs>
</svg>
