<svg width="416" height="416" viewBox="0 0 416 416" fill="none" xmlns="http://www.w3.org/2000/svg">
<g clip-path="url(#clip0_9872_621)">
<path d="M416 208C416 247.309 405.094 284.068 386.132 315.426C369.981 342.194 347.946 365 321.831 382.118C320.248 383.151 318.64 384.171 317.031 385.165C313.605 387.283 310.101 389.297 306.53 391.219C298.148 395.744 289.425 399.706 280.389 403.054H280.376C261.649 410.011 241.641 414.352 220.796 415.608C217.265 415.83 213.695 415.948 210.099 415.987C209.406 415.987 208.7 415.987 208.007 415.987H207.81C207.039 415.987 206.28 415.987 205.522 415.987C202.056 415.948 198.63 415.817 195.217 415.608C174.293 414.339 154.207 409.985 135.402 402.975C126.444 399.641 117.774 395.705 109.456 391.219C105.913 389.31 102.421 387.296 99.0078 385.191C97.2946 384.132 95.6077 383.059 93.9207 381.961C67.9232 364.87 45.9665 342.103 29.8553 315.426C10.9064 284.068 0 247.309 0 208C0 93.1332 93.123 0 208.007 0C322.89 0 416 93.1332 416 208Z" fill="#CAFBDA"/>
<path d="M321.831 382.118C320.248 383.151 318.64 384.171 317.031 385.165C313.605 387.283 310.101 389.297 306.53 391.219C298.148 395.744 289.425 399.706 280.389 403.054H280.376C261.649 410.011 241.641 414.352 220.796 415.608C217.265 415.83 213.695 415.948 210.099 415.987C209.406 415.987 208.7 415.987 208.007 415.987H207.81C207.039 415.987 206.28 415.987 205.522 415.987L207.758 335.133H239.928V345.634C239.928 345.634 295.886 352.943 321.831 382.118Z" fill="#04BF8A"/>
<path d="M227.492 361.705L239.941 345.634V335.133H210.4L227.492 361.705Z" fill="#ECEBEE"/>
<path d="M207.81 416C207.039 416 206.28 416 205.522 416C202.056 415.961 198.63 415.83 195.217 415.621C174.293 414.352 154.207 409.998 135.402 402.989C126.444 399.654 117.774 395.718 109.457 391.232C105.913 389.323 102.421 387.309 99.0078 385.204C97.2947 384.145 95.6077 383.073 93.9208 381.974C119.931 352.93 175.68 345.647 175.68 345.647V335.146H207.863L210.099 416C209.406 416 208.7 416 208.007 416H207.81Z" fill="#02A486"/>
<path d="M188.129 361.705L175.68 345.634V335.133H205.208L188.129 361.705Z" fill="#ECEBEE"/>
<path d="M90.2722 202.455C92.5869 228.988 109.365 230.584 109.365 230.584L109.613 177.466C109.613 177.466 87.9314 175.909 90.2722 202.455Z" fill="#FDDCAB"/>
<path d="M208.02 69.1895C153.239 69.1895 108.842 113.598 108.842 168.364V228.256C108.842 283.035 153.252 327.431 208.02 327.431V69.1895Z" fill="#FDDCAB"/>
<path d="M325.309 201.658C322.995 228.191 306.217 229.786 306.217 229.786L305.968 176.668C305.968 176.668 327.65 175.112 325.309 201.658Z" fill="#FFEAD5"/>
<path d="M208.02 69.1895V327.444C262.8 327.444 307.197 283.035 307.197 228.269V168.377C307.197 113.598 262.787 69.2025 208.02 69.2025V69.1895Z" fill="#FFEAD5"/>
<path d="M112.425 216.918L108.371 222.371C114.714 350.132 208.046 341.044 208.046 341.044V286.213C118.99 303.526 112.425 216.918 112.425 216.918Z" fill="#FDB022"/>
<path d="M208.046 286.213V341.044C208.046 341.044 302.79 350.132 309.133 222.371L305.079 216.918C305.079 216.918 297.102 303.539 208.046 286.213Z" fill="#FEC84B"/>
<path d="M192.314 234.847C174.66 234.428 167.742 251.324 159.111 238.587C159.111 238.587 167.389 280.027 207.993 256.777C207.993 256.777 209.968 235.265 192.327 234.847H192.314Z" fill="#FDB022"/>
<path d="M223.791 234.847C241.445 234.428 248.363 251.324 256.994 238.587C256.994 238.587 248.716 280.027 208.111 256.777C208.111 256.777 206.136 235.265 223.778 234.847H223.791Z" fill="#FEC84B"/>
<path d="M208.02 56.858H207.993C197.022 57.0803 186.442 57.9303 176.739 59.7219C76.0703 83.9663 109.116 177.453 109.116 177.453L124.038 155.457C113.236 132.861 166.133 106.746 208.007 125.799C208.033 125.799 208.046 125.786 208.072 125.773V56.858H208.007H208.02Z" fill="#FDB022"/>
<path d="M292.132 155.457L307.054 177.453C307.054 177.453 340.087 83.9663 239.431 59.7219H239.274C229.597 57.9303 219.044 57.0803 208.085 56.858V125.76C249.945 106.772 302.921 132.861 292.119 155.457H292.132Z" fill="#FEC84B"/>
</g>
<defs>
<clipPath id="clip0_9872_621">
<rect width="416" height="416" fill="white"/>
</clipPath>
</defs>
</svg>
