<svg width="416" height="416" viewBox="0 0 416 416" fill="none" xmlns="http://www.w3.org/2000/svg">
<g clip-path="url(#clip0_9872_476)">
<path d="M416 208C416 227.341 413.358 246.067 408.428 263.825C403.773 280.563 397.078 296.452 388.63 311.202C386.42 315.06 384.093 318.839 381.647 322.54C373.801 334.414 364.765 345.437 354.709 355.441L354.683 355.467C350.511 359.626 346.157 363.588 341.658 367.354C341.004 367.93 340.337 368.479 339.671 369.028C334.139 373.553 328.372 377.803 322.383 381.752C290.946 402.505 253.534 414.928 213.27 415.922C212.956 415.948 212.629 415.948 212.302 415.948C211.988 415.961 211.662 415.974 211.335 415.961C210.236 415.987 209.125 416 208.013 416C206.902 416 205.764 416 204.652 415.974H204.378C204.064 415.974 203.737 415.974 203.423 415.948C202.534 415.948 201.645 415.908 200.742 415.869C159.577 414.457 121.458 401.092 89.7332 379.11C89.6678 379.071 89.6024 379.019 89.537 378.979C87.9809 377.894 86.4247 376.796 84.8948 375.658C78.3825 370.872 72.1579 365.707 66.2472 360.201C66.1557 360.11 66.0641 360.031 65.9726 359.94C65.698 359.691 65.4234 359.43 65.1618 359.168C53.5496 348.21 43.2058 335.918 34.3659 322.553C33.7644 321.638 33.1759 320.735 32.5875 319.807C23.9175 306.233 16.7906 291.587 11.4291 276.117C4.01459 254.776 0 231.865 0 208C0 93.1332 93.1332 0 208 0C322.867 0 416 93.1332 416 208Z" fill="#CFD8F7"/>
<path d="M334.335 234.834H72.4718V290.24H334.335V234.834Z" fill="#71808B"/>
<path d="M203.397 234.834H72.4718V290.24H203.397V234.834Z" fill="#626F77"/>
<path d="M364.49 124.217C356.461 112.278 343.764 106.772 336.114 111.912C336.088 111.925 336.061 111.951 336.035 111.964L310.98 128.807H310.941L287.18 144.826C299.721 156.883 309.712 171.568 316.158 188.071H316.172L349.138 165.88L365.079 155.157C365.079 155.157 365.131 155.13 365.157 155.117C372.807 149.978 372.493 136.13 364.477 124.204L364.49 124.217Z" fill="#626F77"/>
<path d="M364.49 124.217C360.358 118.071 354.997 113.651 349.714 111.493L319.022 132.128H318.97L292.332 150.096C302.48 161.08 310.627 173.909 316.172 188.097H316.185L349.151 165.906L365.092 155.183C365.092 155.183 365.144 155.157 365.17 155.143C372.82 150.004 372.507 136.156 364.49 124.23V124.217Z" fill="#71808B"/>
<path d="M335.944 239.058C339.095 239.058 341.658 236.429 341.501 233.278C337.971 160.06 277.503 101.764 203.41 101.764C129.317 101.764 68.8495 160.047 65.3057 233.278C65.1487 236.429 67.6987 239.058 70.8633 239.058H335.944Z" fill="#A2B7C8"/>
<path d="M334.244 251.428H72.5633C68.4684 251.428 65.1488 254.748 65.1488 258.843V258.856C65.1488 262.951 68.4684 266.27 72.5633 266.27H334.244C338.339 266.27 341.658 262.951 341.658 258.856V258.843C341.658 254.748 338.339 251.428 334.244 251.428Z" fill="#A2B7C8"/>
<path d="M341.658 284.042V367.354C341.004 367.93 340.337 368.479 339.671 369.028C334.139 373.553 328.372 377.803 322.383 381.752C290.946 402.505 253.534 414.928 213.27 415.922C212.956 415.948 212.629 415.948 212.302 415.948C211.988 415.961 211.662 415.974 211.335 415.961C210.236 415.987 209.125 416 208.013 416C206.902 416 205.764 416 204.652 415.974H204.378C204.064 415.974 203.737 415.974 203.423 415.948C202.534 415.948 201.645 415.908 200.742 415.869C159.577 414.457 121.458 401.092 89.7332 379.11C89.6678 379.071 89.6024 379.019 89.537 378.98C87.9809 377.894 86.4247 376.796 84.8948 375.658C78.3825 370.872 72.1579 365.707 66.2472 360.201C66.1557 360.11 66.0641 360.031 65.9726 359.94C65.698 359.691 65.4234 359.43 65.1618 359.168V284.042C65.1618 280.969 67.6857 278.484 70.7979 278.484H336.035C339.147 278.484 341.671 280.969 341.671 284.042H341.658Z" fill="#A2B7C8"/>
<path d="M203.41 278.484V415.948C202.521 415.948 201.632 415.908 200.729 415.869C159.563 414.457 121.444 401.092 89.7201 379.11C89.6547 379.071 89.5893 379.019 89.524 378.98C87.9678 377.894 86.4117 376.796 84.8817 375.658C78.3694 370.872 72.1449 365.707 66.2341 360.201C66.1426 360.11 66.051 360.031 65.9595 359.94C65.6849 359.691 65.4103 359.43 65.1488 359.168V284.042C65.1488 280.969 67.6726 278.484 70.7849 278.484H203.41Z" fill="#8CA0AD"/>
<path d="M203.41 251.428H72.5764C68.4833 251.428 65.1618 254.75 65.1618 258.843C65.1618 262.936 68.4833 266.257 72.5764 266.257H203.41V251.415V251.428Z" fill="#8CA0AD"/>
<path d="M203.41 101.764C129.317 101.764 68.8495 160.047 65.3188 233.278C65.1618 236.429 67.7118 239.058 70.8764 239.058H203.41V101.764Z" fill="#8CA0AD"/>
</g>
<defs>
<clipPath id="clip0_9872_476">
<rect width="416" height="416" fill="white"/>
</clipPath>
</defs>
</svg>
