<svg width="416" height="416" viewBox="0 0 416 416" fill="none" xmlns="http://www.w3.org/2000/svg">
<g clip-path="url(#clip0_9872_360)">
<path d="M416 208C416 280.629 378.783 344.548 322.383 381.752C289.573 403.407 250.264 416 208 416C205.568 416 203.148 415.961 200.729 415.869C159.485 414.457 121.288 401.04 89.5239 378.979C35.4251 341.423 0 278.85 0 208C0 93.1332 93.1332 0 208 0C322.867 0 416 93.1332 416 208Z" fill="#E4FFF0"/>
<path d="M165.932 162.087C160.95 155.287 72.0795 170.626 66.9795 154.686C63.2395 143.021 61.3303 98.1547 64.2595 91.2632C55.4065 112.095 48.6196 134.168 43.3628 156.517C42.5912 159.825 41.8328 163.447 41.2705 167.187C40.1197 174.85 39.7797 182.971 41.8328 189.849C45.1151 200.873 53.4319 202.495 63.1872 203.711C91.8909 207.32 120.398 212.76 148.553 220.005C148.2 214.944 148.317 209.857 148.867 204.822C150.58 189.065 156.543 173.883 165.932 162.074V162.087Z" fill="#29609B"/>
<path d="M370.911 165.919C370.349 162.179 369.603 158.556 368.832 155.248C363.601 132.887 356.84 110.813 348.014 89.9685C350.93 96.86 348.981 141.727 345.228 153.391C340.102 169.319 251.258 153.888 246.263 160.688C255.639 172.509 261.589 187.705 263.289 203.462C263.825 208.497 263.943 213.584 263.59 218.644C291.757 211.426 320.278 206.012 348.981 202.442C358.737 201.226 367.053 199.618 370.349 188.594C372.402 181.716 372.075 173.582 370.937 165.932L370.911 165.919Z" fill="#5494CD"/>
<path d="M330.948 257.365C337.147 285.336 339.291 314.602 337.291 343.672C333.551 341.527 329.811 339.396 326.058 337.251C325.848 352.12 324.619 367.014 322.383 381.752C289.573 403.407 250.264 416 208 416C205.568 416 203.149 415.961 200.729 415.869V138.654C200.729 138.654 217.036 117.351 251.363 120.15C246.25 122.582 235.631 129.5 232.741 137.333C248.381 133.057 263.276 136.535 274.143 144.211C268.415 145.427 263.903 149.677 263.563 152.45C271.972 154.189 280.223 156.765 288.2 160.1C300.675 165.304 312.497 172.405 323.233 181.166C317.427 181.389 311.621 181.611 305.815 181.833C314.498 187.652 321.886 195.812 327.274 205.489C327.862 206.522 328.411 207.582 328.948 208.654C325.966 207.228 322.527 206.993 319.349 208C333.302 223.731 342.979 244.275 346.876 266.388C341.567 263.38 336.258 260.373 330.948 257.365Z" fill="#08BED0"/>
<path d="M200.729 138.654V415.869C159.485 414.457 121.288 401.04 89.524 378.98C84.6986 360.986 81.9655 342.194 81.4425 323.233C81.4032 321.808 79.7556 321.35 79.1017 322.592C78.2125 324.292 77.1402 325.888 75.911 327.3C75.0871 328.255 73.6748 327.679 73.6879 326.372C73.8579 305.344 77.3102 284.238 83.8225 264.296C84.2671 262.936 82.9332 261.798 81.9002 262.661C75.9371 267.526 70.4056 273.083 65.4103 279.203C64.4949 280.328 62.9126 279.373 63.2526 277.909C68.3526 255.364 77.2187 233.775 89.2493 214.669C90.0078 213.466 88.9093 211.949 87.7194 212.551L77.1271 217.978C75.8848 218.618 74.7864 216.971 75.6364 215.768C77.8594 212.59 80.1609 209.478 82.554 206.444C94.3885 191.366 108.172 178.224 123.288 167.619C121.301 169.123 107.047 164.376 102.915 162.205C102.496 161.983 102.182 161.787 101.999 161.63C116.201 155.144 137.385 147.219 152.515 146.709C148.867 135.999 139.504 127.512 121.824 125.511C165.932 114.226 191.314 134.508 200.729 138.654Z" fill="#0691AE"/>
<path d="M205.254 339.553C250.746 339.553 287.625 301.164 287.625 253.808C287.625 206.453 250.746 168.063 205.254 168.063C159.762 168.063 122.883 206.453 122.883 253.808C122.883 301.164 159.762 339.553 205.254 339.553Z" fill="white"/>
<path d="M200.729 168.194C157.367 170.64 122.922 208.013 122.896 253.769C122.87 299.564 157.327 336.977 200.729 339.422V168.194Z" fill="#E0E0E0"/>
<path d="M201.88 204.247C190.529 205.071 179.466 210.066 171.202 219.142C154.032 237.946 155.366 267.12 174.183 284.277C181.794 291.221 191.092 295.131 200.599 296.099C209.36 264.924 211.034 232.885 201.88 204.247Z" fill="#02A486"/>
<path d="M239.319 281.296C256.489 262.491 255.155 233.317 236.337 216.16C226.595 207.268 214.081 203.358 201.88 204.247C211.021 232.872 209.36 264.923 200.599 296.099C214.617 297.511 229.093 292.516 239.319 281.309V281.296Z" fill="#04BF8A"/>
<path d="M202.482 277.556C210.838 278.393 219.468 275.424 225.562 268.742C235.788 257.535 235.004 240.156 223.784 229.917C217.978 224.621 210.511 222.28 203.253 222.816C196.492 223.313 189.902 226.281 184.972 231.695C174.746 242.902 175.53 260.281 186.75 270.52C191.288 274.653 196.832 276.993 202.495 277.556H202.482Z" fill="#263238"/>
</g>
<defs>
<clipPath id="clip0_9872_360">
<rect width="416" height="416" fill="white"/>
</clipPath>
</defs>
</svg>
