<svg width="416" height="416" viewBox="0 0 416 416" fill="none" xmlns="http://www.w3.org/2000/svg">
<g clip-path="url(#clip0_9872_571)">
<path d="M416 208C416 247.309 405.094 284.068 386.132 315.426C369.981 342.194 347.946 365 321.831 382.118C320.248 383.151 318.64 384.171 317.031 385.165C313.605 387.283 310.101 389.297 306.53 391.219C306.007 391.507 305.484 391.782 304.961 392.056C297.063 396.241 288.863 399.915 280.389 403.054H280.376C261.649 410.011 241.641 414.352 220.796 415.608C217.265 415.83 213.695 415.948 210.099 415.987C209.85 415.987 209.589 415.987 209.34 415.987C208.896 415.987 208.451 415.987 208.007 415.987H207.81C207.039 415.987 206.28 415.987 205.522 415.987C202.056 415.948 198.63 415.817 195.217 415.608C174.293 414.339 154.207 409.985 135.402 402.975C128.105 400.255 121.004 397.143 114.138 393.652C112.556 392.867 111 392.056 109.456 391.219C105.913 389.31 102.421 387.296 99.0078 385.191C97.2946 384.132 95.6077 383.059 93.9207 381.961C67.9232 364.87 45.9665 342.103 29.8553 315.426C10.9064 284.068 0 247.309 0 208C0 93.1332 93.123 0 208.007 0C322.89 0 416 93.1332 416 208Z" fill="#FF9D83"/>
<path d="M239.928 345.634V300.649H175.68V345.634C175.68 345.634 119.931 352.917 93.9207 381.961C95.6077 383.06 97.2946 384.132 99.0078 385.191C102.421 387.296 105.913 389.31 109.456 391.22C117.774 395.705 126.444 399.641 135.402 402.976C154.207 409.985 174.293 414.339 195.217 415.608C198.63 415.817 202.056 415.948 205.522 415.987C206.28 415.987 207.039 415.987 207.81 415.987H208.007C208.7 415.987 209.406 415.987 210.099 415.987C213.695 415.948 217.265 415.83 220.796 415.608C241.641 414.352 261.649 410.011 280.376 403.054H280.389C289.425 399.706 298.148 395.744 306.53 391.22C310.101 389.297 313.605 387.283 317.031 385.165C318.64 384.171 320.248 383.151 321.831 382.118C295.886 352.944 239.928 345.634 239.928 345.634Z" fill="#FDDCAB"/>
<path d="M90.2722 202.455C92.5868 228.988 109.365 230.584 109.365 230.584L109.613 177.466C109.613 177.466 87.9313 175.909 90.2722 202.455Z" fill="#FDDCAB"/>
<path d="M208.02 71.321C153.239 71.321 108.842 115.73 108.842 170.496V228.256C108.842 283.035 153.252 327.431 208.02 327.431L208.02 71.321Z" fill="#FDDCAB"/>
<path d="M325.296 201.658C322.982 228.191 306.204 229.786 306.204 229.786L305.955 176.668C305.955 176.668 327.637 175.112 325.296 201.658Z" fill="#FFEAD5"/>
<path d="M208.02 71.321L208.02 327.444C262.8 327.444 307.197 283.035 307.197 228.269V170.509C307.197 115.73 262.787 71.3341 208.02 71.3341V71.321Z" fill="#FFEAD5"/>
<path d="M321.831 382.118L304.961 392.056C297.063 396.241 288.863 399.915 280.389 403.054H280.376C261.649 410.011 241.641 414.352 220.796 415.608C217.265 415.83 213.695 415.948 210.099 415.987C209.85 415.987 209.589 415.987 209.34 415.987V386.224H209.38C209.824 386.224 210.23 386.185 210.687 386.185C248.507 385.4 255.372 347.569 255.372 347.569C256.379 347.634 257.36 347.726 258.328 347.87C296.67 353.78 321.831 382.118 321.831 382.118Z" fill="#FF3932"/>
<path d="M209.34 386.224V415.987C208.896 415.987 208.451 415.987 208.007 415.987H207.81C207.039 415.987 206.28 415.987 205.522 415.987C202.056 415.948 198.63 415.817 195.217 415.608C174.293 414.339 154.207 409.985 135.402 402.975C128.105 400.255 121.004 397.143 114.138 393.652L93.9207 381.961C93.9207 381.961 118.323 353.44 160.366 347.87C161.347 347.739 162.302 347.634 163.322 347.569C163.322 347.569 170.187 385.4 207.993 386.185C208.451 386.185 208.87 386.224 209.314 386.224H209.34Z" fill="#DB242D"/>
<path d="M193.373 213.231V189.065C193.373 188.385 192.837 187.849 192.235 187.849H144.503V213.087C144.503 219.651 149.826 224.974 156.391 224.974H181.63C188.116 224.974 193.373 219.717 193.373 213.231ZM200.997 180.225V213.231C200.997 223.928 192.327 232.598 181.63 232.598H156.469C145.694 232.598 136.879 223.784 136.879 213.008V181.833C136.879 180.944 137.599 180.238 138.475 180.238H200.997V180.225Z" fill="#1F1F24"/>
<path d="M222.313 214.839V189.065C222.313 188.385 222.849 187.849 223.451 187.849H271.183V214.682C271.183 220.371 266.579 224.974 260.891 224.974H232.448C226.851 224.974 222.313 220.436 222.313 214.839ZM214.689 180.225V214.839C214.689 224.647 222.64 232.598 232.448 232.598H260.812C270.712 232.598 278.807 224.503 278.807 214.604V180.225H214.689Z" fill="#1F1F24"/>
<path d="M140.672 187.849H117.564L115.263 180.225H140.672V187.849Z" fill="#1F1F24"/>
<path d="M275.014 187.849H298.135L300.423 180.225H275.014V187.849Z" fill="#1F1F24"/>
<path d="M216.507 180.225H199.179V187.849H216.507V180.225Z" fill="#1F1F24"/>
<path d="M117.512 187.901V159.393C117.512 153.94 118.676 148.775 120.703 144.067C181.839 94.5454 226.184 187.26 297.769 152.855C298.135 154.986 298.423 157.144 298.423 159.38L297.978 186.999C304.137 180.879 308.505 176.995 313.945 177.897L317.11 156.948C317.921 135.084 309.656 113.899 294.669 98.0107C272.987 75.0217 251.305 67.5679 207.954 67.5679C164.603 67.5679 142.908 75.0217 121.239 98.0107C106.253 113.912 97.9878 135.084 98.7985 156.948L101.963 178.669C107.416 177.779 113.027 181.48 117.486 187.901H117.512Z" fill="#1F1F24"/>
</g>
<defs>
<clipPath id="clip0_9872_571">
<rect width="416" height="416" fill="white"/>
</clipPath>
</defs>
</svg>
